<svg width="30" height="16" viewBox="0 0 30 16" fill="none" xmlns="http://www.w3.org/2000/svg">
<path fill-rule="evenodd" clip-rule="evenodd" d="M0.666992 1.33301C0.666992 0.780723 1.11471 0.333008 1.66699 0.333008H12.3337C12.8859 0.333008 13.3337 0.780723 13.3337 1.33301C13.3337 1.88529 12.8859 2.33301 12.3337 2.33301H1.66699C1.11471 2.33301 0.666992 1.88529 0.666992 1.33301ZM21.667 2.33301C18.5374 2.33301 16.0003 4.87006 16.0003 7.99967C16.0003 11.1293 18.5374 13.6663 21.667 13.6663C24.7966 13.6663 27.3337 11.1293 27.3337 7.99967C27.3337 4.87006 24.7966 2.33301 21.667 2.33301ZM14.0003 7.99967C14.0003 3.76549 17.4328 0.333008 21.667 0.333008C25.9012 0.333008 29.3337 3.76549 29.3337 7.99967C29.3337 12.2339 25.9012 15.6663 21.667 15.6663C17.4328 15.6663 14.0003 12.2339 14.0003 7.99967ZM21.667 4.33301C22.2193 4.33301 22.667 4.78072 22.667 5.33301V7.42151L23.756 8.67808C24.1177 9.09543 24.0726 9.72699 23.6553 10.0887C23.2379 10.4504 22.6063 10.4053 22.2446 9.98794L20.9113 8.44948C20.7537 8.26766 20.667 8.03514 20.667 7.79455V5.33301C20.667 4.78072 21.1147 4.33301 21.667 4.33301ZM0.666992 7.99967C0.666992 7.44739 1.11471 6.99967 1.66699 6.99967H9.66699C10.2193 6.99967 10.667 7.44739 10.667 7.99967C10.667 8.55196 10.2193 8.99967 9.66699 8.99967H1.66699C1.11471 8.99967 0.666992 8.55196 0.666992 7.99967ZM0.666992 14.6663C0.666992 14.1141 1.11471 13.6663 1.66699 13.6663H12.3337C12.8859 13.6663 13.3337 14.1141 13.3337 14.6663C13.3337 15.2186 12.8859 15.6663 12.3337 15.6663H1.66699C1.11471 15.6663 0.666992 15.2186 0.666992 14.6663Z" fill="#A0AEC0"/>
</svg>
