<svg width="30" height="30" viewBox="0 0 30 30" fill="none" xmlns="http://www.w3.org/2000/svg">
<path fill-rule="evenodd" clip-rule="evenodd" d="M14.9238 0.666992H15.0768C18.1547 0.666975 20.5667 0.666962 22.4487 0.919988C24.375 1.17897 25.8951 1.71943 27.0881 2.91251C28.2812 4.10559 28.8217 5.62562 29.0807 7.55193C29.3337 9.43392 29.3337 11.846 29.3337 14.9238V15.0768C29.3337 18.1547 29.3337 20.5667 29.0807 22.4487C28.8217 24.375 28.2812 25.8951 27.0881 27.0881C25.8951 28.2812 24.375 28.8217 22.4487 29.0807C20.5667 29.3337 18.1547 29.3337 15.0768 29.3337H14.9238C11.846 29.3337 9.43392 29.3337 7.55193 29.0807C5.62562 28.8217 4.10559 28.2812 2.91251 27.0881C1.71943 25.8951 1.17897 24.375 0.919988 22.4487C0.666962 20.5667 0.666975 18.1547 0.666992 15.0768V14.9238C0.666975 11.846 0.666962 9.43392 0.919988 7.55193C1.17897 5.62562 1.71943 4.10559 2.91251 2.91251C4.10559 1.71943 5.62562 1.17897 7.55193 0.919988C9.43392 0.666962 11.846 0.666975 14.9238 0.666992ZM7.81843 2.90215C6.11389 3.13132 5.08626 3.56718 4.32672 4.32672C3.56718 5.08626 3.13132 6.11389 2.90215 7.81843C2.66912 9.55173 2.66699 11.8294 2.66699 15.0003C2.66699 18.1713 2.66912 20.4489 2.90215 22.1822C3.13132 23.8868 3.56718 24.9144 4.32672 25.6739C5.08626 26.4335 6.11389 26.8693 7.81843 27.0985C9.55173 27.3315 11.8294 27.3337 15.0003 27.3337C18.1713 27.3337 20.4489 27.3315 22.1822 27.0985C23.8868 26.8693 24.9144 26.4335 25.6739 25.6739C26.4335 24.9144 26.8693 23.8868 27.0985 22.1822C27.3315 20.4489 27.3337 18.1713 27.3337 15.0003C27.3337 11.8294 27.3315 9.55173 27.0985 7.81843C26.8693 6.11389 26.4335 5.08626 25.6739 4.32672C24.9144 3.56718 23.8868 3.13132 22.1822 2.90215C20.4489 2.66912 18.1713 2.66699 15.0003 2.66699C11.8294 2.66699 9.55173 2.66912 7.81843 2.90215Z" fill="#A0AEC0"/>
</svg>
