<svg width="20" height="14" viewBox="0 0 20 14" fill="none" xmlns="http://www.w3.org/2000/svg">
<path fill-rule="evenodd" clip-rule="evenodd" d="M1.33301 0.666992C1.88529 0.666992 2.33301 1.11471 2.33301 1.66699V6.00033H6.75276V1.66699C6.75276 1.11471 7.20048 0.666992 7.75276 0.666992C8.30505 0.666992 8.75276 1.11471 8.75276 1.66699V12.3337C8.75276 12.8859 8.30505 13.3337 7.75276 13.3337C7.20048 13.3337 6.75276 12.8859 6.75276 12.3337V8.00033H2.33301V12.3337C2.33301 12.8859 1.88529 13.3337 1.33301 13.3337C0.780723 13.3337 0.333008 12.8859 0.333008 12.3337V1.66699C0.333008 1.11471 0.780723 0.666992 1.33301 0.666992ZM9.96264 2.73366C9.96264 1.42671 11.1668 0.666992 12.2466 0.666992C16.1628 0.666992 19.6663 3.33697 19.6663 7.00033C19.6663 10.6637 16.1628 13.3337 12.2466 13.3337C11.1668 13.3337 9.96264 12.5739 9.96264 11.267V2.73366ZM11.9626 2.76238C11.9662 2.75873 11.9711 2.75412 11.9777 2.7486C12.0211 2.71252 12.113 2.66699 12.2466 2.66699C15.4214 2.66699 17.6663 4.77265 17.6663 7.00033C17.6663 9.228 15.4214 11.3337 12.2466 11.3337C12.113 11.3337 12.0211 11.2881 11.9777 11.252C11.9711 11.2465 11.9662 11.2419 11.9626 11.2383V2.76238Z" fill="#A0AEC0"/>
</svg>
