<svg width="46" height="52" viewBox="0 0 46 52" fill="none" xmlns="http://www.w3.org/2000/svg">
<path fill-rule="evenodd" clip-rule="evenodd" d="M23 4.41663C21.4653 4.41663 19.9553 4.91044 16.1881 6.19998L14.8515 6.6575C11.3222 7.86562 8.74823 8.7474 6.94105 9.48156C6.03901 9.84801 5.38544 10.1551 4.92667 10.4215C4.70018 10.5531 4.54412 10.6616 4.4399 10.7463C4.35152 10.8182 4.31784 10.8588 4.31301 10.8648C4.3085 10.8721 4.2795 10.9206 4.23867 11.0352C4.19204 11.1661 4.14035 11.3538 4.09 11.6151C3.98809 12.1439 3.91087 12.8703 3.85752 13.8501C3.75064 15.8129 3.75 18.5527 3.75 22.3055V25.9798C3.75 38.055 12.7798 43.998 18.7972 46.6266C19.664 47.0052 20.1645 47.2196 20.7217 47.3622C21.2539 47.4984 21.9033 47.5833 23 47.5833C24.0967 47.5833 24.7461 47.4984 25.2783 47.3622C25.8355 47.2196 26.336 47.0052 27.2028 46.6266C33.2202 43.998 42.25 38.055 42.25 25.9798V22.3055C42.25 18.5527 42.2494 15.8129 42.1425 13.8501C42.0891 12.8703 42.0119 12.1439 41.91 11.6151C41.8596 11.3538 41.808 11.1661 41.7613 11.0352C41.7205 10.9205 41.6915 10.872 41.687 10.8647C41.6821 10.8588 41.6484 10.8181 41.5601 10.7463C41.4559 10.6616 41.2998 10.5531 41.0733 10.4215C40.6146 10.1551 39.961 9.84801 39.059 9.48156C37.2518 8.7474 34.6778 7.86562 31.1485 6.6575L29.8119 6.19999C26.0447 4.91045 24.5347 4.41663 23 4.41663ZM15.3546 2.7859C18.7237 1.63199 20.8124 0.916626 23 0.916626C25.1876 0.916626 27.2763 1.63199 30.6454 2.7859C30.7443 2.81976 30.8443 2.854 30.9454 2.88861L32.3428 3.36694C35.7992 4.55008 38.4667 5.46318 40.3763 6.23893C41.3382 6.6297 42.1651 7.00819 42.831 7.39491C43.4719 7.76707 44.1147 8.23125 44.5515 8.85356C44.9833 9.46867 45.2065 10.2249 45.3468 10.9528C45.4926 11.7096 45.5805 12.6174 45.6373 13.6598C45.75 15.7296 45.75 18.565 45.75 22.2429V25.9798C45.75 40.2156 34.9979 47.0408 28.6039 49.8339L28.5406 49.8616C27.7478 50.208 27.0026 50.5337 26.1463 50.7529C25.2422 50.9843 24.2816 51.0833 23 51.0833C21.7184 51.0833 20.7578 50.9843 19.8537 50.7529C18.9974 50.5337 18.2522 50.208 17.4593 49.8616L17.3961 49.8339C11.0021 47.0408 0.25 40.2156 0.25 25.9798V22.2431C0.249996 18.5651 0.249994 15.7296 0.362697 13.6598C0.419456 12.6174 0.507395 11.7096 0.653233 10.9528C0.793512 10.2249 1.01674 9.46867 1.44847 8.85356C1.88525 8.23125 2.52813 7.76707 3.16896 7.39491C3.83486 7.00819 4.66183 6.6297 5.62374 6.23893C7.53328 5.46318 10.2008 4.55008 13.6572 3.36694L15.0546 2.88861C15.1557 2.854 15.2557 2.81976 15.3546 2.7859ZM23 16.4344C22.7225 16.8463 22.3805 17.4534 21.8715 18.3665L21.5657 18.9152C21.5429 18.9559 21.5195 18.9985 21.4953 19.0426C21.2419 19.5029 20.8978 20.1283 20.3294 20.5598C19.7506 20.9992 19.0526 21.1528 18.5535 21.2627C18.5061 21.2731 18.4605 21.2831 18.417 21.293L17.8231 21.4274C16.7377 21.673 16.0613 21.8302 15.6067 21.9891C15.8878 22.4113 16.3595 22.969 17.1248 23.8639L17.5297 24.3373C17.5594 24.3722 17.5905 24.4081 17.6225 24.4452C17.9673 24.8443 18.4259 25.3752 18.6379 26.0568C18.8476 26.7314 18.7766 27.4293 18.7224 27.9628C18.7173 28.0126 18.7124 28.061 18.7078 28.1078L18.6466 28.7395C18.5373 29.868 18.4699 30.598 18.4718 31.1144C18.9203 30.9555 19.5346 30.6764 20.4721 30.2448L21.0282 29.9887C21.0691 29.9699 21.1119 29.9499 21.1566 29.929C21.6182 29.7129 22.2731 29.4065 23 29.4065C23.7269 29.4065 24.3818 29.7129 24.8434 29.929C24.8881 29.9499 24.9309 29.9699 24.9718 29.9887L25.5279 30.2448C26.4654 30.6764 27.0797 30.9555 27.5282 31.1144C27.5301 30.598 27.4627 29.868 27.3534 28.7395L27.2922 28.1078C27.2876 28.061 27.2827 28.0126 27.2776 27.9628C27.2234 27.4293 27.1524 26.7314 27.3621 26.0568C27.5741 25.3752 28.0327 24.8443 28.3775 24.4452C28.4095 24.4081 28.4406 24.3722 28.4703 24.3373L28.8752 23.8639C29.6405 22.969 30.1122 22.4113 30.3933 21.9891C29.9387 21.8302 29.2623 21.673 28.1769 21.4274L27.583 21.293C27.5395 21.2831 27.4939 21.2731 27.4465 21.2627C26.9474 21.1528 26.2494 20.9992 25.6706 20.5598C25.1022 20.1283 24.7581 19.5029 24.5047 19.0426C24.4805 18.9985 24.4571 18.9559 24.4343 18.9152L24.1285 18.3665C23.6195 17.4534 23.2775 16.8463 23 16.4344ZM28.0235 31.2504C28.0261 31.2505 28.0275 31.2506 28.0276 31.2506L28.0235 31.2504ZM17.9724 31.2506C17.9725 31.2506 17.9739 31.2505 17.9765 31.2504L17.9724 31.2506ZM20.394 14.0646C20.8972 13.4075 21.7189 12.5833 23 12.5833C24.2811 12.5833 25.1028 13.4075 25.606 14.0646C26.0906 14.6974 26.5866 15.5875 27.1261 16.5555C27.1458 16.591 27.1657 16.6266 27.1856 16.6624L27.4914 17.211C27.5773 17.3651 27.6437 17.4841 27.7027 17.5862C27.7424 17.6548 27.7734 17.7067 27.7985 17.7466C27.8377 17.7575 27.8874 17.7704 27.951 17.7859C28.0607 17.8126 28.1883 17.8415 28.3554 17.8793L28.9493 18.0137C28.9898 18.0228 29.0302 18.032 29.0705 18.0411C30.1133 18.2768 31.0866 18.4969 31.8215 18.7865C32.6179 19.1003 33.5801 19.666 33.9508 20.8582C34.3156 22.0313 33.8665 23.0441 33.4128 23.7649C32.9865 24.442 32.3285 25.2113 31.6136 26.0469C31.5876 26.0774 31.5614 26.1079 31.5352 26.1386L31.1303 26.6121C31.0166 26.7451 30.929 26.8476 30.8545 26.9375C30.7935 27.0112 30.7513 27.0644 30.7211 27.1046C30.725 27.2345 30.7417 27.4175 30.7759 27.7702L30.8486 28.5208C30.9571 29.639 31.0561 30.6596 31.0203 31.4635C30.9831 32.2986 30.7861 33.4164 29.7933 34.17C28.772 34.9453 27.6309 34.7941 26.8215 34.5622C26.064 34.3452 25.1539 33.926 24.178 33.4764C24.1401 33.459 24.1022 33.4415 24.0641 33.424L23.508 33.1679C23.3516 33.0959 23.2319 33.0409 23.128 32.995C23.0768 32.9724 23.0348 32.9545 23 32.9402C22.9652 32.9545 22.9232 32.9724 22.872 32.995C22.768 33.0409 22.6484 33.0959 22.492 33.1679L21.9359 33.424C21.8978 33.4415 21.8598 33.459 21.822 33.4764C20.8461 33.926 19.936 34.3452 19.1785 34.5622C18.3691 34.7941 17.228 34.9454 16.2067 34.17C15.2139 33.4164 15.0169 32.2986 14.9797 31.4635C14.9439 30.6596 15.0429 29.639 15.1514 28.5208C15.1552 28.4813 15.1591 28.4417 15.1629 28.4019L15.2241 27.7702C15.2583 27.4175 15.275 27.2345 15.2789 27.1046C15.2487 27.0644 15.2065 27.0112 15.1455 26.9375C15.071 26.8476 14.9834 26.7451 14.8697 26.6121L14.4648 26.1386C14.4385 26.1079 14.4124 26.0774 14.3863 26.0469C13.6715 25.2112 13.0135 24.442 12.5872 23.7649C12.1335 23.0441 11.6844 22.0313 12.0492 20.8582C12.4199 19.666 13.3821 19.1003 14.1785 18.7865C14.9134 18.4969 15.8867 18.2768 16.9295 18.0411C16.9698 18.032 17.0102 18.0228 17.0507 18.0137L17.6446 17.8793C17.8117 17.8415 17.9393 17.8126 18.049 17.7859C18.1126 17.7704 18.1623 17.7575 18.2015 17.7467C18.2266 17.7067 18.2576 17.6548 18.2973 17.5862C18.3563 17.4841 18.4227 17.3651 18.5086 17.211L18.8144 16.6624C18.8343 16.6267 18.8542 16.591 18.8739 16.5555C19.4134 15.5875 19.9094 14.6974 20.394 14.0646Z" fill="#A0AEC0"/>
</svg>
