<svg width="32" height="32" viewBox="0 0 32 32" fill="none" xmlns="http://www.w3.org/2000/svg">
<path d="M12.2045 7.21116C13.8934 4.18149 14.7378 2.66666 16.0003 2.66666C17.2628 2.66666 18.1072 4.18149 19.7961 7.21115L20.233 7.99497C20.713 8.8559 20.9529 9.28637 21.3271 9.5704C21.7012 9.85443 22.1672 9.95986 23.0991 10.1707L23.9476 10.3627C27.2272 11.1047 28.867 11.4757 29.2571 12.7303C29.6472 13.9848 28.5293 15.2921 26.2935 17.9066L25.7151 18.583C25.0798 19.3259 24.7621 19.6974 24.6192 20.1569C24.4763 20.6165 24.5243 21.1121 24.6203 22.1034L24.7078 23.0058C25.0458 26.4941 25.2148 28.2383 24.1935 29.0136C23.1721 29.789 21.6368 29.0821 18.5661 27.6682L17.7717 27.3024C16.8991 26.9007 16.4628 26.6998 16.0003 26.6998C15.5379 26.6998 15.1016 26.9007 14.229 27.3024L13.4346 27.6682C10.3639 29.0821 8.82856 29.789 7.80719 29.0136C6.78582 28.2383 6.95483 26.4941 7.29285 23.0059L7.3803 22.1034C7.47636 21.1121 7.52439 20.6165 7.38148 20.1569C7.23856 19.6974 6.92089 19.3259 6.28555 18.583L5.70712 17.9066C3.47132 15.2921 2.35342 13.9848 2.74355 12.7303C3.13368 11.4757 4.77347 11.1047 8.05304 10.3627L8.90151 10.1707C9.83346 9.95986 10.2994 9.85443 10.6736 9.5704C11.0477 9.28637 11.2877 8.8559 11.7676 7.99497L12.2045 7.21116Z" fill="url(#paint0_linear_1582_5708)"/>
<defs>
<linearGradient id="paint0_linear_1582_5708" x1="2.66699" y1="2.66666" x2="29.3337" y2="29.3333" gradientUnits="userSpaceOnUse">
<stop stop-color="#FFD000"/>
<stop offset="1" stop-color="#FFAE00"/>
</linearGradient>
</defs>
</svg>
