<svg width="46" height="46" viewBox="0 0 46 46" fill="none" xmlns="http://www.w3.org/2000/svg">
<path fill-rule="evenodd" clip-rule="evenodd" d="M12.1166 2.89291C13.5064 -0.63098 18.4936 -0.630962 19.8834 2.89291L22.3848 9.23524C22.4533 9.40908 22.5909 9.54668 22.7648 9.61524L29.1071 12.1166C32.631 13.5064 32.631 18.4936 29.1071 19.8834L22.7648 22.3848C22.5909 22.4533 22.4533 22.5909 22.3848 22.7648L19.8834 29.1071C18.4936 32.631 13.5064 32.631 12.1166 29.1071L9.61524 22.7648C9.54668 22.5909 9.40908 22.4533 9.23524 22.3848L2.89291 19.8834C-0.63098 18.4936 -0.630962 13.5064 2.89291 12.1166L9.23524 9.61524C9.40908 9.54668 9.54668 9.40908 9.61524 9.23524L12.1166 2.89291ZM16.6275 4.17703C16.4029 3.60765 15.5971 3.60766 15.3725 4.17703L12.8712 10.5194C12.4468 11.5952 11.5952 12.4468 10.5194 12.8712L4.17703 15.3725C3.60765 15.5971 3.60766 16.4029 4.17703 16.6275L10.5194 19.1288C11.5952 19.5532 12.4468 20.4048 12.8712 21.4806L15.3725 27.823C15.5971 28.3923 16.4029 28.3923 16.6275 27.823L19.1288 21.4806C19.5532 20.4048 20.4048 19.5532 21.4806 19.1288L27.823 16.6275C28.3923 16.4029 28.3923 15.5971 27.823 15.3725L21.4806 12.8712C20.4048 12.4468 19.5532 11.5952 19.1288 10.5194L16.6275 4.17703ZM31.8451 25.5036C32.8549 22.9433 36.4784 22.9433 37.4882 25.5036L39.2819 30.0515L43.8298 31.8451C46.3901 32.8549 46.3901 36.4784 43.8298 37.4882L39.2819 39.2819L37.4882 43.8298C36.4784 46.3901 32.8549 46.3901 31.8451 43.8298L30.0515 39.2819L25.5036 37.4882C22.9433 36.4784 22.9433 32.8549 25.5036 31.8451L30.0515 30.0515L31.8451 25.5036ZM34.6667 27.8891L33.233 31.5243C32.9247 32.3059 32.3059 32.9247 31.5243 33.233L27.8891 34.6667L31.5243 36.1003C32.3059 36.4086 32.9247 37.0274 33.233 37.8091L34.6667 41.4442L36.1003 37.8091C36.4086 37.0274 37.0274 36.4086 37.8091 36.1003L41.4442 34.6667L37.8091 33.233C37.0274 32.9247 36.4086 32.3059 36.1003 31.5243L34.6667 27.8891Z" fill="#A0AEC0"/>
</svg>
