<svg width="38" height="70" viewBox="0 0 38 70" fill="none" xmlns="http://www.w3.org/2000/svg">
<path d="M18.5077 2.20306C17.0632 3.41066 16.2474 4.91198 15.8226 6.0543C15.7206 6.34804 15.6357 6.60916 15.5677 6.83762C15.517 7.01998 15.4853 7.18422 15.4583 7.3236C15.4491 7.37125 15.4404 7.41618 15.4317 7.45775C15.3637 7.80045 15.3468 7.99625 15.3468 7.99625C15.3468 7.99625 15.5507 7.93097 15.8736 7.7841C15.9514 7.74674 16.0328 7.70938 16.121 7.66889C16.2254 7.62098 16.3394 7.5686 16.4684 7.5067C16.6893 7.40879 16.9442 7.27822 17.2161 7.13135C18.3037 6.57651 19.6463 5.77688 20.9038 4.73247C22.1444 3.67174 23.1301 2.51313 23.8778 1.59927C24.0647 1.37081 24.2347 1.15864 24.3706 0.962809C24.4548 0.855005 24.5339 0.757097 24.605 0.66908C24.663 0.597215 24.7157 0.531943 24.7615 0.473262C24.9654 0.179522 25.0844 0.0163348 25.0844 0.0163348C25.0844 0.0163348 24.8805 0 24.4896 0C24.3169 0 24.1007 0.0139093 23.8679 0.0288935L23.8098 0.0326199C23.7663 0.0381921 23.7213 0.0437651 23.675 0.049501C23.45 0.0773598 23.1939 0.109074 22.9261 0.163199C22.6033 0.212156 22.2634 0.29374 21.8895 0.407973C21.7029 0.456854 21.5162 0.52203 21.3296 0.587205L21.3287 0.587506C21.2352 0.628304 21.1418 0.665015 21.0483 0.701726C20.9548 0.738437 20.8614 0.775148 20.7679 0.815945C20.6744 0.856742 20.5767 0.901621 20.479 0.946499C20.3813 0.991378 20.2836 1.03626 20.1901 1.07705C20.0735 1.13815 19.9568 1.2056 19.8361 1.27544C19.7633 1.31753 19.689 1.36049 19.6123 1.40345C19.4254 1.51768 19.2214 1.6482 19.0515 1.77875C18.8824 1.90865 18.6965 2.05472 18.5105 2.20086L18.5077 2.20306Z" fill="white"/>
<path d="M18.5077 2.20306C17.0632 3.41066 16.2474 4.91198 15.8226 6.0543C15.7206 6.34804 15.6357 6.60916 15.5677 6.83762C15.517 7.01998 15.4853 7.18422 15.4583 7.3236C15.4491 7.37125 15.4404 7.41618 15.4317 7.45775C15.3637 7.80045 15.3468 7.99625 15.3468 7.99625C15.3468 7.99625 15.5507 7.93097 15.8736 7.7841C15.9514 7.74674 16.0328 7.70938 16.121 7.66889C16.2254 7.62098 16.3394 7.5686 16.4684 7.5067C16.6893 7.40879 16.9442 7.27822 17.2161 7.13135C18.3037 6.57651 19.6463 5.77688 20.9038 4.73247C22.1444 3.67174 23.1301 2.51313 23.8778 1.59927C24.0647 1.37081 24.2347 1.15864 24.3706 0.962809C24.4548 0.855005 24.5339 0.757097 24.605 0.66908C24.663 0.597215 24.7157 0.531943 24.7615 0.473262C24.9654 0.179522 25.0844 0.0163348 25.0844 0.0163348C25.0844 0.0163348 24.8805 0 24.4896 0C24.3169 0 24.1007 0.0139093 23.8679 0.0288935L23.8098 0.0326199C23.7663 0.0381921 23.7213 0.0437651 23.675 0.049501C23.45 0.0773598 23.1939 0.109074 22.9261 0.163199C22.6033 0.212156 22.2634 0.29374 21.8895 0.407973C21.7029 0.456854 21.5162 0.52203 21.3296 0.587205L21.3287 0.587506C21.2352 0.628304 21.1418 0.665015 21.0483 0.701726C20.9548 0.738437 20.8614 0.775148 20.7679 0.815945C20.6744 0.856742 20.5767 0.901621 20.479 0.946499C20.3813 0.991378 20.2836 1.03626 20.1901 1.07705C20.0735 1.13815 19.9568 1.2056 19.8361 1.27544C19.7633 1.31753 19.689 1.36049 19.6123 1.40345C19.4254 1.51768 19.2214 1.6482 19.0515 1.77875C18.8824 1.90865 18.6965 2.05472 18.5105 2.20086L18.5077 2.20306Z" fill="url(#paint0_linear_1582_5732)"/>
<path d="M13.9534 7.45713C13.7834 8.77896 13.2736 10.1334 12.7978 11.1615C12.6382 11.5388 12.4697 11.8649 12.3308 12.1339C12.2774 12.2372 12.2284 12.332 12.186 12.4181C12.033 12.7281 11.9141 12.9076 11.9141 12.9076C11.9141 12.9076 11.4382 12.5813 10.9794 11.9122C10.5036 11.2431 10.0447 10.215 10.1297 8.82791C10.1977 7.4408 10.8774 5.97208 11.5402 4.87871C11.7101 4.60129 11.8801 4.35654 12.033 4.14439C12.1743 3.93333 12.3156 3.76404 12.4435 3.6108L12.4749 3.57322C12.7298 3.26316 12.8997 3.08367 12.8997 3.08367C12.8997 3.08367 13.2736 3.52427 13.5795 4.29126C13.7325 4.68291 13.8684 5.13985 13.9534 5.67837C14.0214 6.20058 14.0383 6.80437 13.9534 7.45713Z" fill="white"/>
<path d="M13.9534 7.45713C13.7834 8.77896 13.2736 10.1334 12.7978 11.1615C12.6382 11.5388 12.4697 11.8649 12.3308 12.1339C12.2774 12.2372 12.2284 12.332 12.186 12.4181C12.033 12.7281 11.9141 12.9076 11.9141 12.9076C11.9141 12.9076 11.4382 12.5813 10.9794 11.9122C10.5036 11.2431 10.0447 10.215 10.1297 8.82791C10.1977 7.4408 10.8774 5.97208 11.5402 4.87871C11.7101 4.60129 11.8801 4.35654 12.033 4.14439C12.1743 3.93333 12.3156 3.76404 12.4435 3.6108L12.4749 3.57322C12.7298 3.26316 12.8997 3.08367 12.8997 3.08367C12.8997 3.08367 13.2736 3.52427 13.5795 4.29126C13.7325 4.68291 13.8684 5.13985 13.9534 5.67837C14.0214 6.20058 14.0383 6.80437 13.9534 7.45713Z" fill="url(#paint1_linear_1582_5732)"/>
<path d="M8.20927 17.216C8.44719 18.6684 8.29425 20.235 8.1243 21.4589C8.09032 21.7689 8.03933 22.0464 7.98835 22.3075C7.96594 22.4797 7.93614 22.6306 7.90869 22.7695C7.89451 22.8413 7.88096 22.9099 7.86939 22.9766C7.78442 23.3519 7.73344 23.5804 7.73344 23.5804C7.73344 23.5804 7.13864 23.3682 6.42489 22.7807C6.06801 22.487 5.69414 22.0953 5.35426 21.6057C5.03137 21.1162 4.72548 20.4961 4.57253 19.7291C4.23265 18.2277 4.48756 16.4816 4.86143 15.1598C5.04836 14.4907 5.25229 13.9196 5.42224 13.5279C5.59218 13.1199 5.71114 12.8915 5.71114 12.8915C5.71114 12.8915 5.84709 12.9731 6.05102 13.1526C6.25495 13.3321 6.52685 13.5932 6.81575 13.9685C7.10465 14.3275 7.39355 14.7845 7.64847 15.323C7.86939 15.8615 8.09031 16.498 8.20927 17.216Z" fill="white"/>
<path d="M8.20927 17.216C8.44719 18.6684 8.29425 20.235 8.1243 21.4589C8.09032 21.7689 8.03933 22.0464 7.98835 22.3075C7.96594 22.4797 7.93614 22.6306 7.90869 22.7695C7.89451 22.8413 7.88096 22.9099 7.86939 22.9766C7.78442 23.3519 7.73344 23.5804 7.73344 23.5804C7.73344 23.5804 7.13864 23.3682 6.42489 22.7807C6.06801 22.487 5.69414 22.0953 5.35426 21.6057C5.03137 21.1162 4.72548 20.4961 4.57253 19.7291C4.23265 18.2277 4.48756 16.4816 4.86143 15.1598C5.04836 14.4907 5.25229 13.9196 5.42224 13.5279C5.59218 13.1199 5.71114 12.8915 5.71114 12.8915C5.71114 12.8915 5.84709 12.9731 6.05102 13.1526C6.25495 13.3321 6.52685 13.5932 6.81575 13.9685C7.10465 14.3275 7.39355 14.7845 7.64847 15.323C7.86939 15.8615 8.09031 16.498 8.20927 17.216Z" fill="url(#paint2_linear_1582_5732)"/>
<path d="M6.54387 32.6218C6.28896 31.2837 5.94907 29.5865 5.26931 28.1015C4.92943 27.3509 4.50457 26.7307 4.06272 26.2249C3.63787 25.719 3.17903 25.311 2.78816 25.0009C1.98944 24.3808 1.32667 24.1524 1.32667 24.1524C1.32667 24.1524 1.27568 24.4298 1.20771 24.903C1.18676 25.0438 1.17227 25.2094 1.15628 25.3922C1.14632 25.5059 1.13578 25.6264 1.12274 25.7516C1.10574 26.078 1.08875 26.437 1.08875 26.8286C1.07175 28.3789 1.34366 30.3699 2.21036 31.9039C2.6692 32.6708 3.16204 33.242 3.68885 33.6663C4.23267 34.0906 4.75948 34.368 5.23532 34.5638C5.71116 34.7433 6.11902 34.8412 6.40792 34.8902C6.71381 34.9555 6.88375 34.9555 6.88375 34.9555C6.88375 34.9555 6.86676 34.6944 6.81578 34.2864C6.80577 34.2239 6.79577 34.1587 6.78533 34.0906C6.76031 33.9273 6.73279 33.7478 6.69682 33.552C6.67493 33.4329 6.65618 33.3078 6.63652 33.1767C6.61039 33.0024 6.58266 32.8174 6.54387 32.6218Z" fill="white"/>
<path d="M6.54387 32.6218C6.28896 31.2837 5.94907 29.5865 5.26931 28.1015C4.92943 27.3509 4.50457 26.7307 4.06272 26.2249C3.63787 25.719 3.17903 25.311 2.78816 25.0009C1.98944 24.3808 1.32667 24.1524 1.32667 24.1524C1.32667 24.1524 1.27568 24.4298 1.20771 24.903C1.18676 25.0438 1.17227 25.2094 1.15628 25.3922C1.14632 25.5059 1.13578 25.6264 1.12274 25.7516C1.10574 26.078 1.08875 26.437 1.08875 26.8286C1.07175 28.3789 1.34366 30.3699 2.21036 31.9039C2.6692 32.6708 3.16204 33.242 3.68885 33.6663C4.23267 34.0906 4.75948 34.368 5.23532 34.5638C5.71116 34.7433 6.11902 34.8412 6.40792 34.8902C6.71381 34.9555 6.88375 34.9555 6.88375 34.9555C6.88375 34.9555 6.86676 34.6944 6.81578 34.2864C6.80577 34.2239 6.79577 34.1587 6.78533 34.0906C6.76031 33.9273 6.73279 33.7478 6.69682 33.552C6.67493 33.4329 6.65618 33.3078 6.63652 33.1767C6.61039 33.0024 6.58266 32.8174 6.54387 32.6218Z" fill="url(#paint3_linear_1582_5732)"/>
<path d="M5.86411 39.4433C7.11656 40.7435 8.08245 42.3512 8.84572 43.6217L8.85508 43.6373C8.94003 43.8004 9.02504 43.9637 9.10999 44.1105C9.19496 44.2574 9.27993 44.4043 9.34791 44.5348C9.50086 44.7959 9.63681 45.0407 9.73877 45.2529C9.9427 45.6608 10.0787 45.9056 10.0787 45.9056C10.0787 45.9056 9.89172 45.9546 9.56883 46.0035C9.24594 46.0525 8.7871 46.1014 8.2263 46.0851C7.13867 46.0198 5.6092 45.6771 4.1647 44.4206C2.72019 43.1477 1.64956 41.2058 1.08875 39.5575C0.960949 39.2166 0.868743 38.8871 0.782389 38.5785C0.765401 38.5178 0.74864 38.4579 0.731879 38.3989C0.701424 38.2702 0.670969 38.1479 0.642079 38.0318C0.590366 37.8239 0.543662 37.6362 0.510953 37.4687C0.408988 36.9302 0.375 36.6038 0.375 36.6038C0.375 36.6038 0.561938 36.6202 0.884826 36.6691C1.20771 36.7344 1.66655 36.8486 2.19337 37.0281C2.7032 37.224 3.33198 37.5014 3.96077 37.9094C4.26666 38.1052 4.58955 38.3336 4.89544 38.5947C5.23532 38.8232 5.55822 39.117 5.86411 39.4433Z" fill="white"/>
<path d="M5.86411 39.4433C7.11656 40.7435 8.08245 42.3512 8.84572 43.6217L8.85508 43.6373C8.94003 43.8004 9.02504 43.9637 9.10999 44.1105C9.19496 44.2574 9.27993 44.4043 9.34791 44.5348C9.50086 44.7959 9.63681 45.0407 9.73877 45.2529C9.9427 45.6608 10.0787 45.9056 10.0787 45.9056C10.0787 45.9056 9.89172 45.9546 9.56883 46.0035C9.24594 46.0525 8.7871 46.1014 8.2263 46.0851C7.13867 46.0198 5.6092 45.6771 4.1647 44.4206C2.72019 43.1477 1.64956 41.2058 1.08875 39.5575C0.960949 39.2166 0.868743 38.8871 0.782389 38.5785C0.765401 38.5178 0.74864 38.4579 0.731879 38.3989C0.701424 38.2702 0.670969 38.1479 0.642079 38.0318C0.590366 37.8239 0.543662 37.6362 0.510953 37.4687C0.408988 36.9302 0.375 36.6038 0.375 36.6038C0.375 36.6038 0.561938 36.6202 0.884826 36.6691C1.20771 36.7344 1.66655 36.8486 2.19337 37.0281C2.7032 37.224 3.33198 37.5014 3.96077 37.9094C4.26666 38.1052 4.58955 38.3336 4.89544 38.5947C5.23532 38.8232 5.55822 39.117 5.86411 39.4433Z" fill="url(#paint4_linear_1582_5732)"/>
<path d="M10.5375 50.1807C10.4312 50.1195 10.325 50.0583 10.2146 50.0012C9.77273 49.7564 9.34788 49.5769 8.92302 49.4463C8.51516 49.2668 8.1073 49.1363 7.71644 49.0384C7.32557 48.9404 6.9517 48.8588 6.59482 48.8099C6.23795 48.7609 5.91506 48.7283 5.60916 48.712C5.02708 48.6641 4.52638 48.7099 4.17076 48.7425L4.14767 48.7446C3.79079 48.7935 3.58686 48.8425 3.58686 48.8425C3.58686 48.8425 3.73981 49.1526 4.02871 49.6748C4.13137 49.8719 4.2728 50.0877 4.43104 50.3291C4.48235 50.4074 4.53542 50.4884 4.58952 50.5723C4.63099 50.6336 4.67306 50.6966 4.71607 50.7609C4.90216 51.0396 5.10578 51.3445 5.35425 51.6493C6.50985 53.1507 8.29424 54.8316 10.2486 55.6638C11.2002 56.0718 12.1349 56.235 12.9336 56.2676C13.7324 56.3003 14.4461 56.186 15.0239 56.0228C15.6017 55.8597 16.0606 55.6638 16.3665 55.5006C16.6724 55.3374 16.8423 55.2232 16.8423 55.2232C16.8423 55.2232 16.6384 54.9947 16.2645 54.6684C16.1285 54.5497 15.9769 54.4094 15.8086 54.2538C15.5142 53.9816 15.1691 53.6625 14.769 53.3302C14.4631 53.0528 14.1402 52.7754 13.7833 52.4816C13.7537 52.4589 13.7241 52.4341 13.6938 52.4088C13.6371 52.3615 13.5778 52.312 13.5114 52.2695C13.469 52.2287 13.4222 52.192 13.3755 52.1553C13.3288 52.1185 13.282 52.0818 13.2395 52.041L12.6787 51.6004C12.537 51.4998 12.3952 51.397 12.2527 51.2937C12.0022 51.1121 11.749 50.9286 11.4891 50.7518C11.2852 50.6213 11.0813 50.4907 10.8604 50.3602C10.7499 50.3031 10.6437 50.2419 10.5375 50.1807Z" fill="white"/>
<path d="M10.5375 50.1807C10.4312 50.1195 10.325 50.0583 10.2146 50.0012C9.77273 49.7564 9.34788 49.5769 8.92302 49.4463C8.51516 49.2668 8.1073 49.1363 7.71644 49.0384C7.32557 48.9404 6.9517 48.8588 6.59482 48.8099C6.23795 48.7609 5.91506 48.7283 5.60916 48.712C5.02708 48.6641 4.52638 48.7099 4.17076 48.7425L4.14767 48.7446C3.79079 48.7935 3.58686 48.8425 3.58686 48.8425C3.58686 48.8425 3.73981 49.1526 4.02871 49.6748C4.13137 49.8719 4.2728 50.0877 4.43104 50.3291C4.48235 50.4074 4.53542 50.4884 4.58952 50.5723C4.63099 50.6336 4.67306 50.6966 4.71607 50.7609C4.90216 51.0396 5.10578 51.3445 5.35425 51.6493C6.50985 53.1507 8.29424 54.8316 10.2486 55.6638C11.2002 56.0718 12.1349 56.235 12.9336 56.2676C13.7324 56.3003 14.4461 56.186 15.0239 56.0228C15.6017 55.8597 16.0606 55.6638 16.3665 55.5006C16.6724 55.3374 16.8423 55.2232 16.8423 55.2232C16.8423 55.2232 16.6384 54.9947 16.2645 54.6684C16.1285 54.5497 15.9769 54.4094 15.8086 54.2538C15.5142 53.9816 15.1691 53.6625 14.769 53.3302C14.4631 53.0528 14.1402 52.7754 13.7833 52.4816C13.7537 52.4589 13.7241 52.4341 13.6938 52.4088C13.6371 52.3615 13.5778 52.312 13.5114 52.2695C13.469 52.2287 13.4222 52.192 13.3755 52.1553C13.3288 52.1185 13.282 52.0818 13.2395 52.041L12.6787 51.6004C12.537 51.4998 12.3952 51.397 12.2527 51.2937C12.0022 51.1121 11.749 50.9286 11.4891 50.7518C11.2852 50.6213 11.0813 50.4907 10.8604 50.3602C10.7499 50.3031 10.6437 50.2419 10.5375 50.1807Z" fill="url(#paint5_linear_1582_5732)"/>
<path d="M17.794 58.7651C18.8646 58.9609 19.9012 59.271 20.9039 59.581C21.1906 59.6855 21.4774 59.7844 21.7574 59.881L21.7591 59.8816C21.9598 59.9508 22.1571 60.0189 22.3484 60.0869C22.4877 60.1347 22.6212 60.1881 22.7523 60.2405L22.7529 60.2407C22.8454 60.2777 22.9368 60.3143 23.0282 60.348C23.2491 60.4296 23.47 60.5112 23.6739 60.5765C23.9629 60.6921 24.2391 60.7995 24.498 60.9002C24.9698 61.0838 25.384 61.2449 25.7132 61.3924C25.8487 61.4575 25.9787 61.5066 26.0906 61.549C26.1751 61.5809 26.2496 61.6091 26.308 61.6372C26.444 61.6861 26.5119 61.7188 26.5119 61.7188C26.5119 61.7188 26.393 61.8983 26.1551 62.1757C25.9172 62.4532 25.5433 62.8285 25.0165 63.2038C24.5066 63.5629 23.8439 63.9382 23.0112 64.1993C22.5863 64.3461 22.1275 64.4277 21.6346 64.493C21.1418 64.542 20.581 64.5746 20.0032 64.5257C19.4254 64.4767 18.8306 64.3788 18.2358 64.2319C17.658 64.0687 17.0632 63.8729 16.5024 63.6608C15.9416 63.416 15.3978 63.1549 14.871 62.8774C14.3611 62.6 13.8853 62.2899 13.4435 61.9962C13.3681 61.9548 13.2995 61.907 13.2335 61.8608C13.1953 61.8341 13.1579 61.808 13.1206 61.7841C13.0696 61.7433 13.0187 61.7067 12.9678 61.67L12.9673 61.6696C12.9165 61.633 12.8655 61.5963 12.8147 61.5556C12.7182 61.4861 12.6294 61.4167 12.5427 61.3489C12.4462 61.2734 12.3524 61.2001 12.2539 61.1313C11.897 60.8539 11.5911 60.6091 11.3532 60.3806C10.8773 59.94 10.6054 59.6626 10.6054 59.6626C10.6054 59.6626 10.7924 59.5484 11.1493 59.3852C11.4891 59.2384 11.999 59.0425 12.6447 58.8793C12.9676 58.7977 13.3075 58.7324 13.6984 58.6835C14.0892 58.6182 14.4971 58.5856 14.9219 58.5693C15.3638 58.553 15.8226 58.5529 16.2985 58.6019C16.7573 58.6019 17.2671 58.6509 17.794 58.7651Z" fill="white"/>
<path d="M17.794 58.7651C18.8646 58.9609 19.9012 59.271 20.9039 59.581C21.1906 59.6855 21.4774 59.7844 21.7574 59.881L21.7591 59.8816C21.9598 59.9508 22.1571 60.0189 22.3484 60.0869C22.4877 60.1347 22.6212 60.1881 22.7523 60.2405L22.7529 60.2407C22.8454 60.2777 22.9368 60.3143 23.0282 60.348C23.2491 60.4296 23.47 60.5112 23.6739 60.5765C23.9629 60.6921 24.2391 60.7995 24.498 60.9002C24.9698 61.0838 25.384 61.2449 25.7132 61.3924C25.8487 61.4575 25.9787 61.5066 26.0906 61.549C26.1751 61.5809 26.2496 61.6091 26.308 61.6372C26.444 61.6861 26.5119 61.7188 26.5119 61.7188C26.5119 61.7188 26.393 61.8983 26.1551 62.1757C25.9172 62.4532 25.5433 62.8285 25.0165 63.2038C24.5066 63.5629 23.8439 63.9382 23.0112 64.1993C22.5863 64.3461 22.1275 64.4277 21.6346 64.493C21.1418 64.542 20.581 64.5746 20.0032 64.5257C19.4254 64.4767 18.8306 64.3788 18.2358 64.2319C17.658 64.0687 17.0632 63.8729 16.5024 63.6608C15.9416 63.416 15.3978 63.1549 14.871 62.8774C14.3611 62.6 13.8853 62.2899 13.4435 61.9962C13.3681 61.9548 13.2995 61.907 13.2335 61.8608C13.1953 61.8341 13.1579 61.808 13.1206 61.7841C13.0696 61.7433 13.0187 61.7067 12.9678 61.67L12.9673 61.6696C12.9165 61.633 12.8655 61.5963 12.8147 61.5556C12.7182 61.4861 12.6294 61.4167 12.5427 61.3489C12.4462 61.2734 12.3524 61.2001 12.2539 61.1313C11.897 60.8539 11.5911 60.6091 11.3532 60.3806C10.8773 59.94 10.6054 59.6626 10.6054 59.6626C10.6054 59.6626 10.7924 59.5484 11.1493 59.3852C11.4891 59.2384 11.999 59.0425 12.6447 58.8793C12.9676 58.7977 13.3075 58.7324 13.6984 58.6835C14.0892 58.6182 14.4971 58.5856 14.9219 58.5693C15.3638 58.553 15.8226 58.5529 16.2985 58.6019C16.7573 58.6019 17.2671 58.6509 17.794 58.7651Z" fill="url(#paint6_linear_1582_5732)"/>
<path d="M29.8258 64.3945C29.248 64.4435 28.6702 64.5088 28.0924 64.623C26.9538 64.7862 25.9342 65.1126 25.0675 65.4389C24.2008 65.7816 23.453 66.1896 22.8582 66.5486C22.2634 66.9239 21.8046 67.2829 21.5157 67.5604C21.2268 67.8378 21.0738 68.0173 21.0738 68.0173C21.0738 68.0173 21.4647 68.2131 22.1445 68.5069C22.4844 68.6538 22.9092 68.8006 23.385 68.9638C23.6225 69.0453 23.877 69.1267 24.1314 69.2082L24.1328 69.2086C24.3877 69.2902 24.6766 69.3718 24.9655 69.4371C25.5433 69.5839 26.1551 69.7308 26.8179 69.8124C27.4636 69.9103 28.1434 69.9919 28.8232 69.9919C29.5029 70.0082 30.1827 70.0082 30.8625 69.9103C31.5422 69.8287 32.188 69.7145 32.7998 69.5186C33.4116 69.3228 33.9554 69.1107 34.4312 68.8496C34.9071 68.5885 35.3149 68.2947 35.6718 68.001C35.8587 67.8378 36.0117 67.691 36.1646 67.5441C36.2183 67.4797 36.2746 67.4178 36.3304 67.3565C36.416 67.2625 36.5005 67.1696 36.5725 67.0708C36.8274 66.7608 37.0313 66.4507 37.2013 66.157C37.5412 65.5695 37.7451 65.0636 37.8471 64.6883C37.9473 64.3192 37.9819 64.0921 37.983 64.0846C37.9942 64.0847 38 64.0847 38 64.0847C38 64.0847 37.966 63.8563 37.864 63.4809C37.7621 63.1056 37.5921 62.5834 37.3372 61.9796C37.3067 61.9137 37.2762 61.8462 37.2451 61.7774C37.1377 61.5394 37.0234 61.2863 36.8784 61.0331C36.7934 60.8699 36.7084 60.7067 36.6065 60.5436C36.5046 60.3805 36.4027 60.201 36.3007 60.0216C36.0798 59.6789 35.8417 59.3359 35.5698 58.9932C35.5005 58.9101 35.4312 58.8248 35.3611 58.7384C35.156 58.486 34.9437 58.2247 34.7031 57.9815C33.4456 56.676 32.0181 55.7295 30.8625 54.9951C30.7945 54.9543 30.7222 54.9135 30.65 54.8727C30.5778 54.8319 30.5056 54.7912 30.4376 54.7504C30.3836 54.718 30.3323 54.6856 30.2827 54.6542C30.2072 54.6065 30.1355 54.5612 30.0637 54.5219C29.9339 54.4417 29.8091 54.3713 29.6921 54.3053C29.5948 54.2503 29.5029 54.1984 29.418 54.1465C29.0611 53.9344 28.8402 53.8365 28.8402 53.8365C28.8402 53.8365 28.7552 54.0486 28.6362 54.4076C28.5343 54.7667 28.3983 55.2888 28.3303 55.9253C28.2623 56.5617 28.2793 57.2798 28.4493 58.0631C28.6192 58.9117 28.9931 59.7113 29.6049 60.5272C29.9108 60.9189 30.2847 61.2779 30.6755 61.6369C31.0834 61.947 31.5252 62.257 31.9671 62.5181C32.4259 62.7629 32.9018 62.9914 33.3776 63.1872C33.8534 63.3667 34.3293 63.5136 34.7711 63.6441C35.6718 63.8563 36.4875 64.0031 37.0653 64.0358C37.3524 64.0601 37.5849 64.0723 37.7463 64.0785C37.5845 64.0763 37.3456 64.076 37.0483 64.0844C36.786 64.0992 36.4746 64.104 36.1237 64.1093C35.7018 64.1157 35.2227 64.123 34.7031 64.1497C34.2273 64.1497 33.7175 64.166 33.1907 64.1987C32.6638 64.1987 32.103 64.215 31.5422 64.264C30.9814 64.2803 30.4036 64.3292 29.8258 64.3945Z" fill="white"/>
<path d="M29.8258 64.3945C29.248 64.4435 28.6702 64.5088 28.0924 64.623C26.9538 64.7862 25.9342 65.1126 25.0675 65.4389C24.2008 65.7816 23.453 66.1896 22.8582 66.5486C22.2634 66.9239 21.8046 67.2829 21.5157 67.5604C21.2268 67.8378 21.0738 68.0173 21.0738 68.0173C21.0738 68.0173 21.4647 68.2131 22.1445 68.5069C22.4844 68.6538 22.9092 68.8006 23.385 68.9638C23.6225 69.0453 23.877 69.1267 24.1314 69.2082L24.1328 69.2086C24.3877 69.2902 24.6766 69.3718 24.9655 69.4371C25.5433 69.5839 26.1551 69.7308 26.8179 69.8124C27.4636 69.9103 28.1434 69.9919 28.8232 69.9919C29.5029 70.0082 30.1827 70.0082 30.8625 69.9103C31.5422 69.8287 32.188 69.7145 32.7998 69.5186C33.4116 69.3228 33.9554 69.1107 34.4312 68.8496C34.9071 68.5885 35.3149 68.2947 35.6718 68.001C35.8587 67.8378 36.0117 67.691 36.1646 67.5441C36.2183 67.4797 36.2746 67.4178 36.3304 67.3565C36.416 67.2625 36.5005 67.1696 36.5725 67.0708C36.8274 66.7608 37.0313 66.4507 37.2013 66.157C37.5412 65.5695 37.7451 65.0636 37.8471 64.6883C37.9473 64.3192 37.9819 64.0921 37.983 64.0846C37.9942 64.0847 38 64.0847 38 64.0847C38 64.0847 37.966 63.8563 37.864 63.4809C37.7621 63.1056 37.5921 62.5834 37.3372 61.9796C37.3067 61.9137 37.2762 61.8462 37.2451 61.7774C37.1377 61.5394 37.0234 61.2863 36.8784 61.0331C36.7934 60.8699 36.7084 60.7067 36.6065 60.5436C36.5046 60.3805 36.4027 60.201 36.3007 60.0216C36.0798 59.6789 35.8417 59.3359 35.5698 58.9932C35.5005 58.9101 35.4312 58.8248 35.3611 58.7384C35.156 58.486 34.9437 58.2247 34.7031 57.9815C33.4456 56.676 32.0181 55.7295 30.8625 54.9951C30.7945 54.9543 30.7222 54.9135 30.65 54.8727C30.5778 54.8319 30.5056 54.7912 30.4376 54.7504C30.3836 54.718 30.3323 54.6856 30.2827 54.6542C30.2072 54.6065 30.1355 54.5612 30.0637 54.5219C29.9339 54.4417 29.8091 54.3713 29.6921 54.3053C29.5948 54.2503 29.5029 54.1984 29.418 54.1465C29.0611 53.9344 28.8402 53.8365 28.8402 53.8365C28.8402 53.8365 28.7552 54.0486 28.6362 54.4076C28.5343 54.7667 28.3983 55.2888 28.3303 55.9253C28.2623 56.5617 28.2793 57.2798 28.4493 58.0631C28.6192 58.9117 28.9931 59.7113 29.6049 60.5272C29.9108 60.9189 30.2847 61.2779 30.6755 61.6369C31.0834 61.947 31.5252 62.257 31.9671 62.5181C32.4259 62.7629 32.9018 62.9914 33.3776 63.1872C33.8534 63.3667 34.3293 63.5136 34.7711 63.6441C35.6718 63.8563 36.4875 64.0031 37.0653 64.0358C37.3524 64.0601 37.5849 64.0723 37.7463 64.0785C37.5845 64.0763 37.3456 64.076 37.0483 64.0844C36.786 64.0992 36.4746 64.104 36.1237 64.1093C35.7018 64.1157 35.2227 64.123 34.7031 64.1497C34.2273 64.1497 33.7175 64.166 33.1907 64.1987C32.6638 64.1987 32.103 64.215 31.5422 64.264C30.9814 64.2803 30.4036 64.3292 29.8258 64.3945Z" fill="url(#paint7_linear_1582_5732)"/>
<path d="M16.1625 9.07336C14.9219 9.51397 13.8343 10.4768 13.0866 11.3254C12.7127 11.7497 12.4238 12.1413 12.2369 12.435C12.0499 12.7288 11.931 12.9083 11.931 12.9083C11.931 12.9083 12.4748 13.1041 13.3075 13.1531C14.1402 13.202 15.2448 13.1368 16.4004 12.6472C17.556 12.1413 18.5757 11.358 19.3234 10.7052L19.3745 10.6607C19.5413 10.5152 19.6944 10.3816 19.8332 10.2483C19.887 10.1967 19.9386 10.1492 19.9874 10.1042C20.0774 10.0213 20.158 9.94704 20.2241 9.87302C20.445 9.66087 20.564 9.53029 20.564 9.53029C20.564 9.53029 20.0882 9.20391 19.3064 8.97545C18.9156 8.86122 18.4397 8.7633 17.9129 8.7633C17.3861 8.77961 16.7913 8.84489 16.1625 9.07336Z" fill="white"/>
<path d="M16.1625 9.07336C14.9219 9.51397 13.8343 10.4768 13.0866 11.3254C12.7127 11.7497 12.4238 12.1413 12.2369 12.435C12.0499 12.7288 11.931 12.9083 11.931 12.9083C11.931 12.9083 12.4748 13.1041 13.3075 13.1531C14.1402 13.202 15.2448 13.1368 16.4004 12.6472C17.556 12.1413 18.5757 11.358 19.3234 10.7052L19.3745 10.6607C19.5413 10.5152 19.6944 10.3816 19.8332 10.2483C19.887 10.1967 19.9386 10.1492 19.9874 10.1042C20.0774 10.0213 20.158 9.94704 20.2241 9.87302C20.445 9.66087 20.564 9.53029 20.564 9.53029C20.564 9.53029 20.0882 9.20391 19.3064 8.97545C18.9156 8.86122 18.4397 8.7633 17.9129 8.7633C17.3861 8.77961 16.7913 8.84489 16.1625 9.07336Z" fill="url(#paint8_linear_1582_5732)"/>
<path d="M8.46421 21.5734C8.99103 20.4637 9.85773 19.1419 11.0473 18.3096C11.6421 17.9017 12.2369 17.6405 12.8147 17.4937C13.3755 17.3468 13.9023 17.3142 14.3612 17.3142C14.82 17.3142 15.1939 17.3794 15.4658 17.4284C15.7377 17.4773 15.8906 17.5263 15.8906 17.5263C15.8906 17.5263 15.7887 17.7058 15.6357 17.9996C15.4828 18.2933 15.2279 18.7013 14.939 19.1582C14.3442 20.0884 13.4945 21.2144 12.4238 22.063C11.863 22.4709 11.3192 22.781 10.7754 23.0095C10.2486 23.2379 9.73877 23.3848 9.27992 23.4664C8.37924 23.6296 7.73344 23.5804 7.73344 23.5804C7.73344 23.5804 7.78444 23.3522 7.9034 22.9931C7.93655 22.8764 7.98407 22.7459 8.03662 22.6016C8.06483 22.5241 8.09467 22.4422 8.12433 22.3567C8.2093 22.1119 8.32825 21.8508 8.46421 21.5734Z" fill="white"/>
<path d="M8.46421 21.5734C8.99103 20.4637 9.85773 19.1419 11.0473 18.3096C11.6421 17.9017 12.2369 17.6405 12.8147 17.4937C13.3755 17.3468 13.9023 17.3142 14.3612 17.3142C14.82 17.3142 15.1939 17.3794 15.4658 17.4284C15.7377 17.4773 15.8906 17.5263 15.8906 17.5263C15.8906 17.5263 15.7887 17.7058 15.6357 17.9996C15.4828 18.2933 15.2279 18.7013 14.939 19.1582C14.3442 20.0884 13.4945 21.2144 12.4238 22.063C11.863 22.4709 11.3192 22.781 10.7754 23.0095C10.2486 23.2379 9.73877 23.3848 9.27992 23.4664C8.37924 23.6296 7.73344 23.5804 7.73344 23.5804C7.73344 23.5804 7.78444 23.3522 7.9034 22.9931C7.93655 22.8764 7.98407 22.7459 8.03662 22.6016C8.06483 22.5241 8.09467 22.4422 8.12433 22.3567C8.2093 22.1119 8.32825 21.8508 8.46421 21.5734Z" fill="url(#paint9_linear_1582_5732)"/>
<path d="M8.60012 28.4437C7.61446 29.6349 7.08764 31.2832 6.9347 32.605C6.92541 32.6941 6.91486 32.7833 6.90443 32.8714C6.87667 33.1059 6.84973 33.3336 6.84973 33.5352V34.2695C6.86672 34.6938 6.88371 34.9386 6.88371 34.9386C6.88371 34.9386 7.05365 34.906 7.34255 34.7917C7.63146 34.6938 8.02232 34.5306 8.44717 34.2859C8.88902 34.0411 9.36486 33.731 9.8407 33.3393C10.3165 32.9314 10.8094 32.4581 11.2172 31.8706C12.0669 30.712 12.5768 29.3575 12.9506 28.2642C12.991 28.1324 13.0314 28.0079 13.0699 27.8891C13.1125 27.7579 13.1529 27.6334 13.1885 27.5135C13.2565 27.2851 13.3075 27.0729 13.3415 26.9097C13.4265 26.567 13.4774 26.3548 13.4774 26.3548C13.4774 26.3548 12.7807 26.3059 11.812 26.518C11.3192 26.6323 10.7924 26.8118 10.2316 27.1056C9.65376 27.4319 9.10994 27.8562 8.60012 28.4437Z" fill="white"/>
<path d="M8.60012 28.4437C7.61446 29.6349 7.08764 31.2832 6.9347 32.605C6.92541 32.6941 6.91486 32.7833 6.90443 32.8714C6.87667 33.1059 6.84973 33.3336 6.84973 33.5352V34.2695C6.86672 34.6938 6.88371 34.9386 6.88371 34.9386C6.88371 34.9386 7.05365 34.906 7.34255 34.7917C7.63146 34.6938 8.02232 34.5306 8.44717 34.2859C8.88902 34.0411 9.36486 33.731 9.8407 33.3393C10.3165 32.9314 10.8094 32.4581 11.2172 31.8706C12.0669 30.712 12.5768 29.3575 12.9506 28.2642C12.991 28.1324 13.0314 28.0079 13.0699 27.8891C13.1125 27.7579 13.1529 27.6334 13.1885 27.5135C13.2565 27.2851 13.3075 27.0729 13.3415 26.9097C13.4265 26.567 13.4774 26.3548 13.4774 26.3548C13.4774 26.3548 12.7807 26.3059 11.812 26.518C11.3192 26.6323 10.7924 26.8118 10.2316 27.1056C9.65376 27.4319 9.10994 27.8562 8.60012 28.4437Z" fill="url(#paint10_linear_1582_5732)"/>
<path d="M9.26296 43.4893C8.92308 42.0696 8.82111 40.2092 9.41591 38.6589C9.56885 38.2673 9.7388 37.9246 9.92573 37.6145C10.1297 37.3045 10.3506 37.027 10.5885 36.7823C11.0643 36.2927 11.5402 35.9337 12.016 35.6726C12.4918 35.4115 12.8997 35.232 13.2056 35.134C13.5115 35.0361 13.6984 34.9872 13.6984 34.9872C13.6984 34.9872 13.7324 35.2157 13.7494 35.5747C13.7664 35.7705 13.7834 35.9826 13.8004 36.2274C13.8089 36.358 13.8089 36.4926 13.8089 36.6313C13.8089 36.77 13.8089 36.9128 13.8174 37.0597C13.8344 38.2509 13.8174 39.7849 13.3755 41.27C12.9337 42.755 12.152 43.9136 11.4212 44.7132C11.0643 45.1049 10.7414 45.415 10.4865 45.6108C10.2316 45.8066 10.0787 45.9045 10.0787 45.9045C10.0787 45.9045 10.0447 45.8392 9.99371 45.725C9.94273 45.6108 9.87475 45.4476 9.78978 45.2354C9.72676 45.0781 9.66376 44.8939 9.59382 44.6894C9.56944 44.6181 9.54422 44.5444 9.51787 44.4684C9.49187 44.3561 9.45593 44.2438 9.41765 44.1241C9.40589 44.0873 9.3939 44.0499 9.38192 44.0115C9.36717 43.9407 9.34922 43.8668 9.33085 43.7912C9.30688 43.6925 9.2822 43.5909 9.26296 43.4893Z" fill="white"/>
<path d="M9.26296 43.4893C8.92308 42.0696 8.82111 40.2092 9.41591 38.6589C9.56885 38.2673 9.7388 37.9246 9.92573 37.6145C10.1297 37.3045 10.3506 37.027 10.5885 36.7823C11.0643 36.2927 11.5402 35.9337 12.016 35.6726C12.4918 35.4115 12.8997 35.232 13.2056 35.134C13.5115 35.0361 13.6984 34.9872 13.6984 34.9872C13.6984 34.9872 13.7324 35.2157 13.7494 35.5747C13.7664 35.7705 13.7834 35.9826 13.8004 36.2274C13.8089 36.358 13.8089 36.4926 13.8089 36.6313C13.8089 36.77 13.8089 36.9128 13.8174 37.0597C13.8344 38.2509 13.8174 39.7849 13.3755 41.27C12.9337 42.755 12.152 43.9136 11.4212 44.7132C11.0643 45.1049 10.7414 45.415 10.4865 45.6108C10.2316 45.8066 10.0787 45.9045 10.0787 45.9045C10.0787 45.9045 10.0447 45.8392 9.99371 45.725C9.94273 45.6108 9.87475 45.4476 9.78978 45.2354C9.72676 45.0781 9.66376 44.8939 9.59382 44.6894C9.56944 44.6181 9.54422 44.5444 9.51787 44.4684C9.49187 44.3561 9.45593 44.2438 9.41765 44.1241C9.40589 44.0873 9.3939 44.0499 9.38192 44.0115C9.36717 43.9407 9.34922 43.8668 9.33085 43.7912C9.30688 43.6925 9.2822 43.5909 9.26296 43.4893Z" fill="url(#paint11_linear_1582_5732)"/>
<path d="M13.5795 48.0426C13.5795 48.1 13.5784 48.1573 13.5773 48.2144C13.5742 48.3847 13.571 48.5528 13.5965 48.7117C13.6116 48.9146 13.6401 49.1047 13.6701 49.3048L13.6814 49.3808C13.7494 49.8214 13.8684 50.2783 14.0213 50.7026C14.0893 50.9146 14.1742 51.1266 14.2591 51.3387C14.2846 51.3876 14.306 51.441 14.3272 51.4941C14.3485 51.5471 14.3697 51.6001 14.3952 51.6491C14.4462 51.747 14.4972 51.845 14.5311 51.9429C14.7181 52.3345 14.922 52.6935 15.1259 53.0362C15.5678 53.689 15.9756 54.2601 16.3155 54.6191C16.6384 54.9945 16.8593 55.2066 16.8593 55.2066C16.8593 55.2066 16.9953 55.0434 17.1652 54.766C17.3522 54.4723 17.5731 54.048 17.794 53.5258C18.0149 53.0036 18.2189 52.3835 18.3718 51.6818C18.5248 50.98 18.5927 50.2293 18.5588 49.3971C18.4908 47.7489 17.981 46.1823 17.5561 44.9747C17.4966 44.8278 17.4456 44.6809 17.3968 44.5402C17.3479 44.3995 17.3012 44.2648 17.2502 44.1424C17.2149 44.0577 17.1796 43.9768 17.1457 43.8992C17.0817 43.7527 17.0227 43.6176 16.9783 43.4896C16.8254 43.1306 16.7234 42.9185 16.7234 42.9185C16.7234 42.9185 16.5534 43.0164 16.2645 43.2285C15.9926 43.4244 15.6188 43.7344 15.2279 44.1587L15.1975 44.1932C15.019 44.3956 14.8269 44.6134 14.6501 44.8604C14.4632 45.1215 14.2932 45.4153 14.1403 45.7417C13.9873 46.068 13.8514 46.427 13.7494 46.8024C13.6644 47.194 13.5965 47.602 13.5795 48.0426Z" fill="white"/>
<path d="M13.5795 48.0426C13.5795 48.1 13.5784 48.1573 13.5773 48.2144C13.5742 48.3847 13.571 48.5528 13.5965 48.7117C13.6116 48.9146 13.6401 49.1047 13.6701 49.3048L13.6814 49.3808C13.7494 49.8214 13.8684 50.2783 14.0213 50.7026C14.0893 50.9146 14.1742 51.1266 14.2591 51.3387C14.2846 51.3876 14.306 51.441 14.3272 51.4941C14.3485 51.5471 14.3697 51.6001 14.3952 51.6491C14.4462 51.747 14.4972 51.845 14.5311 51.9429C14.7181 52.3345 14.922 52.6935 15.1259 53.0362C15.5678 53.689 15.9756 54.2601 16.3155 54.6191C16.6384 54.9945 16.8593 55.2066 16.8593 55.2066C16.8593 55.2066 16.9953 55.0434 17.1652 54.766C17.3522 54.4723 17.5731 54.048 17.794 53.5258C18.0149 53.0036 18.2189 52.3835 18.3718 51.6818C18.5248 50.98 18.5927 50.2293 18.5588 49.3971C18.4908 47.7489 17.981 46.1823 17.5561 44.9747C17.4966 44.8278 17.4456 44.6809 17.3968 44.5402C17.3479 44.3995 17.3012 44.2648 17.2502 44.1424C17.2149 44.0577 17.1796 43.9768 17.1457 43.8992C17.0817 43.7527 17.0227 43.6176 16.9783 43.4896C16.8254 43.1306 16.7234 42.9185 16.7234 42.9185C16.7234 42.9185 16.5534 43.0164 16.2645 43.2285C15.9926 43.4244 15.6188 43.7344 15.2279 44.1587L15.1975 44.1932C15.019 44.3956 14.8269 44.6134 14.6501 44.8604C14.4632 45.1215 14.2932 45.4153 14.1403 45.7417C13.9873 46.068 13.8514 46.427 13.7494 46.8024C13.6644 47.194 13.5965 47.602 13.5795 48.0426Z" fill="url(#paint12_linear_1582_5732)"/>
<path d="M21.9236 58.1925C21.3118 57.4418 20.8189 56.5606 20.547 55.663C20.4111 55.2061 20.3261 54.7655 20.2921 54.3249C20.2581 53.9006 20.2751 53.4926 20.3261 53.1173C20.3771 52.742 20.4451 52.3993 20.547 52.0729C20.6316 51.8021 20.7396 51.5539 20.8418 51.3187C20.8629 51.2704 20.8836 51.2226 20.9039 51.1754C21.1588 50.6205 21.4477 50.1962 21.6517 49.9025C21.8556 49.6087 22.0085 49.4455 22.0085 49.4455C22.0085 49.4455 22.1785 49.625 22.4504 49.9351C22.5394 50.0572 22.6569 50.1884 22.7887 50.3356L22.8458 50.3994C22.8722 50.4289 22.899 50.4591 22.9262 50.4899C23.0112 50.6042 23.0962 50.7184 23.1981 50.8326C23.2321 50.8979 23.2831 50.9631 23.334 51.0284L23.487 51.2243C24.3197 52.285 25.3054 53.6558 25.9682 55.2551C26.1381 55.663 26.2741 56.0547 26.376 56.4463C26.4612 56.7872 26.5227 57.1166 26.5802 57.4252L26.5891 57.4727C26.5974 57.5172 26.6057 57.5614 26.6139 57.605C26.7329 58.3393 26.7669 59.0574 26.7499 59.6611C26.7499 60.2649 26.6819 60.7708 26.6139 61.1298C26.563 61.4889 26.495 61.6847 26.495 61.6847L26.2911 61.5868C26.1721 61.5378 25.9682 61.4399 25.7302 61.3094C25.2544 61.0483 24.6086 60.6729 23.9289 60.1344C23.8772 60.0947 23.8239 60.055 23.7701 60.0149C23.6468 59.923 23.5203 59.8286 23.4021 59.7264C23.2322 59.5797 23.0624 59.4166 22.8926 59.2536C22.5528 58.9272 22.2125 58.5841 21.9236 58.1925Z" fill="white"/>
<path d="M21.9236 58.1925C21.3118 57.4418 20.8189 56.5606 20.547 55.663C20.4111 55.2061 20.3261 54.7655 20.2921 54.3249C20.2581 53.9006 20.2751 53.4926 20.3261 53.1173C20.3771 52.742 20.4451 52.3993 20.547 52.0729C20.6316 51.8021 20.7396 51.5539 20.8418 51.3187C20.8629 51.2704 20.8836 51.2226 20.9039 51.1754C21.1588 50.6205 21.4477 50.1962 21.6517 49.9025C21.8556 49.6087 22.0085 49.4455 22.0085 49.4455C22.0085 49.4455 22.1785 49.625 22.4504 49.9351C22.5394 50.0572 22.6569 50.1884 22.7887 50.3356L22.8458 50.3994C22.8722 50.4289 22.899 50.4591 22.9262 50.4899C23.0112 50.6042 23.0962 50.7184 23.1981 50.8326C23.2321 50.8979 23.2831 50.9631 23.334 51.0284L23.487 51.2243C24.3197 52.285 25.3054 53.6558 25.9682 55.2551C26.1381 55.663 26.2741 56.0547 26.376 56.4463C26.4612 56.7872 26.5227 57.1166 26.5802 57.4252L26.5891 57.4727C26.5974 57.5172 26.6057 57.5614 26.6139 57.605C26.7329 58.3393 26.7669 59.0574 26.7499 59.6611C26.7499 60.2649 26.6819 60.7708 26.6139 61.1298C26.563 61.4889 26.495 61.6847 26.495 61.6847L26.2911 61.5868C26.1721 61.5378 25.9682 61.4399 25.7302 61.3094C25.2544 61.0483 24.6086 60.6729 23.9289 60.1344C23.8772 60.0947 23.8239 60.055 23.7701 60.0149C23.6468 59.923 23.5203 59.8286 23.4021 59.7264C23.2322 59.5797 23.0624 59.4166 22.8926 59.2536C22.5528 58.9272 22.2125 58.5841 21.9236 58.1925Z" fill="url(#paint13_linear_1582_5732)"/>
<defs>
<linearGradient id="paint0_linear_1582_5732" x1="-0.060771" y1="0.813962" x2="58.9304" y2="31.7993" gradientUnits="userSpaceOnUse">
<stop stop-color="#FFFB00"/>
<stop offset="1" stop-color="#FF7B00"/>
</linearGradient>
<linearGradient id="paint1_linear_1582_5732" x1="-0.060771" y1="0.813962" x2="58.9304" y2="31.7993" gradientUnits="userSpaceOnUse">
<stop stop-color="#FFFB00"/>
<stop offset="1" stop-color="#FF7B00"/>
</linearGradient>
<linearGradient id="paint2_linear_1582_5732" x1="-0.060771" y1="0.813962" x2="58.9304" y2="31.7993" gradientUnits="userSpaceOnUse">
<stop stop-color="#FFFB00"/>
<stop offset="1" stop-color="#FF7B00"/>
</linearGradient>
<linearGradient id="paint3_linear_1582_5732" x1="-0.060771" y1="0.813962" x2="58.9304" y2="31.7993" gradientUnits="userSpaceOnUse">
<stop stop-color="#FFFB00"/>
<stop offset="1" stop-color="#FF7B00"/>
</linearGradient>
<linearGradient id="paint4_linear_1582_5732" x1="-0.060771" y1="0.813962" x2="58.9304" y2="31.7993" gradientUnits="userSpaceOnUse">
<stop stop-color="#FFFB00"/>
<stop offset="1" stop-color="#FF7B00"/>
</linearGradient>
<linearGradient id="paint5_linear_1582_5732" x1="-0.060771" y1="0.813962" x2="58.9304" y2="31.7993" gradientUnits="userSpaceOnUse">
<stop stop-color="#FFFB00"/>
<stop offset="1" stop-color="#FF7B00"/>
</linearGradient>
<linearGradient id="paint6_linear_1582_5732" x1="-0.060771" y1="0.813962" x2="58.9304" y2="31.7993" gradientUnits="userSpaceOnUse">
<stop stop-color="#FFFB00"/>
<stop offset="1" stop-color="#FF7B00"/>
</linearGradient>
<linearGradient id="paint7_linear_1582_5732" x1="-0.060771" y1="0.813962" x2="58.9304" y2="31.7993" gradientUnits="userSpaceOnUse">
<stop stop-color="#FFFB00"/>
<stop offset="1" stop-color="#FF7B00"/>
</linearGradient>
<linearGradient id="paint8_linear_1582_5732" x1="-0.060771" y1="0.813962" x2="58.9304" y2="31.7993" gradientUnits="userSpaceOnUse">
<stop stop-color="#FFFB00"/>
<stop offset="1" stop-color="#FF7B00"/>
</linearGradient>
<linearGradient id="paint9_linear_1582_5732" x1="-0.060771" y1="0.813962" x2="58.9304" y2="31.7993" gradientUnits="userSpaceOnUse">
<stop stop-color="#FFFB00"/>
<stop offset="1" stop-color="#FF7B00"/>
</linearGradient>
<linearGradient id="paint10_linear_1582_5732" x1="-0.060771" y1="0.813962" x2="58.9304" y2="31.7993" gradientUnits="userSpaceOnUse">
<stop stop-color="#FFFB00"/>
<stop offset="1" stop-color="#FF7B00"/>
</linearGradient>
<linearGradient id="paint11_linear_1582_5732" x1="-0.060771" y1="0.813962" x2="58.9304" y2="31.7993" gradientUnits="userSpaceOnUse">
<stop stop-color="#FFFB00"/>
<stop offset="1" stop-color="#FF7B00"/>
</linearGradient>
<linearGradient id="paint12_linear_1582_5732" x1="-0.060771" y1="0.813962" x2="58.9304" y2="31.7993" gradientUnits="userSpaceOnUse">
<stop stop-color="#FFFB00"/>
<stop offset="1" stop-color="#FF7B00"/>
</linearGradient>
<linearGradient id="paint13_linear_1582_5732" x1="-0.060771" y1="0.813962" x2="58.9304" y2="31.7993" gradientUnits="userSpaceOnUse">
<stop stop-color="#FFFB00"/>
<stop offset="1" stop-color="#FF7B00"/>
</linearGradient>
</defs>
</svg>
