<svg width="38" height="70" viewBox="0 0 38 70" fill="none" xmlns="http://www.w3.org/2000/svg">
<path d="M19.4923 2.20306C20.9368 3.41066 21.7525 4.91198 22.1774 6.0543C22.2793 6.34804 22.3643 6.60916 22.4323 6.83762C22.4829 7.01999 22.5147 7.18425 22.5417 7.32364C22.5509 7.37134 22.5596 7.41614 22.5682 7.45775C22.6362 7.80045 22.6532 7.99625 22.6532 7.99625C22.6532 7.99625 22.4493 7.93097 22.1264 7.7841C22.0486 7.74672 21.9672 7.70936 21.8789 7.66885C21.7745 7.62093 21.6605 7.56861 21.5316 7.5067C21.3107 7.40879 21.0558 7.27822 20.7839 7.13135C19.6962 6.57651 18.3537 5.77688 17.0961 4.73247C15.8556 3.67174 14.8699 2.51313 14.1222 1.59927C13.9352 1.37081 13.7653 1.15864 13.6293 0.962809C13.5452 0.855038 13.4661 0.757157 13.3951 0.669162C13.3371 0.597296 13.2843 0.531943 13.2385 0.473262C13.0345 0.179522 12.9156 0.0163348 12.9156 0.0163348C12.9156 0.0163348 13.1195 0 13.5104 0C13.683 0 13.8992 0.0139088 14.1321 0.0288927L14.1901 0.0326199C14.2337 0.0381949 14.2787 0.0437708 14.3251 0.0495099C14.55 0.0773689 14.8061 0.109074 15.0738 0.163199C15.3967 0.212156 15.7366 0.29374 16.1105 0.407973C16.2971 0.456854 16.4838 0.52203 16.6704 0.587205L16.6713 0.587506C16.7647 0.628302 16.8582 0.665013 16.9517 0.701723C17.0451 0.738435 17.1386 0.775147 17.2321 0.815945C17.3255 0.856724 17.4232 0.901581 17.5209 0.946439C17.6185 0.991298 17.7165 1.03627 17.8099 1.07705C17.9265 1.13815 18.0432 1.2056 18.1639 1.27544C18.2367 1.31753 18.311 1.36049 18.3877 1.40345C18.5746 1.51768 18.7786 1.6482 18.9485 1.77875C19.1176 1.90865 19.3035 2.05472 19.4895 2.20086L19.4923 2.20306Z" fill="white"/>
<path d="M19.4923 2.20306C20.9368 3.41066 21.7525 4.91198 22.1774 6.0543C22.2793 6.34804 22.3643 6.60916 22.4323 6.83762C22.4829 7.01999 22.5147 7.18425 22.5417 7.32364C22.5509 7.37134 22.5596 7.41614 22.5682 7.45775C22.6362 7.80045 22.6532 7.99625 22.6532 7.99625C22.6532 7.99625 22.4493 7.93097 22.1264 7.7841C22.0486 7.74672 21.9672 7.70936 21.8789 7.66885C21.7745 7.62093 21.6605 7.56861 21.5316 7.5067C21.3107 7.40879 21.0558 7.27822 20.7839 7.13135C19.6962 6.57651 18.3537 5.77688 17.0961 4.73247C15.8556 3.67174 14.8699 2.51313 14.1222 1.59927C13.9352 1.37081 13.7653 1.15864 13.6293 0.962809C13.5452 0.855038 13.4661 0.757157 13.3951 0.669162C13.3371 0.597296 13.2843 0.531943 13.2385 0.473262C13.0345 0.179522 12.9156 0.0163348 12.9156 0.0163348C12.9156 0.0163348 13.1195 0 13.5104 0C13.683 0 13.8992 0.0139088 14.1321 0.0288927L14.1901 0.0326199C14.2337 0.0381949 14.2787 0.0437708 14.3251 0.0495099C14.55 0.0773689 14.8061 0.109074 15.0738 0.163199C15.3967 0.212156 15.7366 0.29374 16.1105 0.407973C16.2971 0.456854 16.4838 0.52203 16.6704 0.587205L16.6713 0.587506C16.7647 0.628302 16.8582 0.665013 16.9517 0.701723C17.0451 0.738435 17.1386 0.775147 17.2321 0.815945C17.3255 0.856724 17.4232 0.901581 17.5209 0.946439C17.6185 0.991298 17.7165 1.03627 17.8099 1.07705C17.9265 1.13815 18.0432 1.2056 18.1639 1.27544C18.2367 1.31753 18.311 1.36049 18.3877 1.40345C18.5746 1.51768 18.7786 1.6482 18.9485 1.77875C19.1176 1.90865 19.3035 2.05472 19.4895 2.20086L19.4923 2.20306Z" fill="url(#paint0_linear_1582_5733)"/>
<path d="M24.0466 7.45713C24.2165 8.77896 24.7264 10.1334 25.2022 11.1615C25.3618 11.5388 25.5303 11.8649 25.6692 12.1339C25.7225 12.2372 25.7715 12.332 25.814 12.4181C25.9669 12.7281 26.0859 12.9076 26.0859 12.9076C26.0859 12.9076 26.5617 12.5813 27.0206 11.9122C27.4964 11.2431 27.9553 10.215 27.8703 8.82791C27.8023 7.4408 27.1225 5.97208 26.4598 4.87871C26.2898 4.60129 26.1199 4.35654 25.9669 4.14439C25.8256 3.93333 25.6843 3.76404 25.5564 3.6108L25.5251 3.57322C25.2702 3.26316 25.1002 3.08367 25.1002 3.08367C25.1002 3.08367 24.7264 3.52427 24.4205 4.29126C24.2675 4.68291 24.1316 5.13985 24.0466 5.67837C23.9786 6.20058 23.9616 6.80437 24.0466 7.45713Z" fill="white"/>
<path d="M24.0466 7.45713C24.2165 8.77896 24.7264 10.1334 25.2022 11.1615C25.3618 11.5388 25.5303 11.8649 25.6692 12.1339C25.7225 12.2372 25.7715 12.332 25.814 12.4181C25.9669 12.7281 26.0859 12.9076 26.0859 12.9076C26.0859 12.9076 26.5617 12.5813 27.0206 11.9122C27.4964 11.2431 27.9553 10.215 27.8703 8.82791C27.8023 7.4408 27.1225 5.97208 26.4598 4.87871C26.2898 4.60129 26.1199 4.35654 25.9669 4.14439C25.8256 3.93333 25.6843 3.76404 25.5564 3.6108L25.5251 3.57322C25.2702 3.26316 25.1002 3.08367 25.1002 3.08367C25.1002 3.08367 24.7264 3.52427 24.4205 4.29126C24.2675 4.68291 24.1316 5.13985 24.0466 5.67837C23.9786 6.20058 23.9616 6.80437 24.0466 7.45713Z" fill="url(#paint1_linear_1582_5733)"/>
<path d="M29.7907 17.216C29.5528 18.6684 29.7057 20.235 29.8757 21.4589C29.9097 21.7689 29.9606 22.0464 30.0116 22.3075C30.034 22.4797 30.0638 22.6306 30.0913 22.7695C30.1055 22.8413 30.119 22.9099 30.1306 22.9766C30.2156 23.3519 30.2665 23.5804 30.2665 23.5804C30.2665 23.5804 30.8613 23.3682 31.5751 22.7807C31.932 22.487 32.3058 22.0953 32.6457 21.6057C32.9686 21.1162 33.2745 20.4961 33.4274 19.7291C33.7673 18.2277 33.5124 16.4816 33.1385 15.1598C32.9516 14.4907 32.7477 13.9196 32.5777 13.5279C32.4078 13.1199 32.2888 12.8915 32.2888 12.8915C32.2888 12.8915 32.1529 12.9731 31.949 13.1526C31.745 13.3321 31.4731 13.5932 31.1842 13.9685C30.8953 14.3275 30.6064 14.7845 30.3515 15.323C30.1306 15.8615 29.9097 16.498 29.7907 17.216Z" fill="white"/>
<path d="M29.7907 17.216C29.5528 18.6684 29.7057 20.235 29.8757 21.4589C29.9097 21.7689 29.9606 22.0464 30.0116 22.3075C30.034 22.4797 30.0638 22.6306 30.0913 22.7695C30.1055 22.8413 30.119 22.9099 30.1306 22.9766C30.2156 23.3519 30.2665 23.5804 30.2665 23.5804C30.2665 23.5804 30.8613 23.3682 31.5751 22.7807C31.932 22.487 32.3058 22.0953 32.6457 21.6057C32.9686 21.1162 33.2745 20.4961 33.4274 19.7291C33.7673 18.2277 33.5124 16.4816 33.1385 15.1598C32.9516 14.4907 32.7477 13.9196 32.5777 13.5279C32.4078 13.1199 32.2888 12.8915 32.2888 12.8915C32.2888 12.8915 32.1529 12.9731 31.949 13.1526C31.745 13.3321 31.4731 13.5932 31.1842 13.9685C30.8953 14.3275 30.6064 14.7845 30.3515 15.323C30.1306 15.8615 29.9097 16.498 29.7907 17.216Z" fill="url(#paint2_linear_1582_5733)"/>
<path d="M31.4561 32.6218C31.711 31.2837 32.0509 29.5865 32.7307 28.1015C33.0705 27.3509 33.4954 26.7307 33.9372 26.2249C34.3621 25.719 34.8209 25.311 35.2118 25.0009C36.0105 24.3808 36.6733 24.1524 36.6733 24.1524C36.6733 24.1524 36.7243 24.4298 36.7923 24.903C36.8132 25.0438 36.8277 25.2094 36.8437 25.3921C36.8536 25.5059 36.8642 25.6264 36.8772 25.7516C36.8942 26.078 36.9112 26.437 36.9112 26.8286C36.9282 28.3789 36.6563 30.3699 35.7896 31.9039C35.3308 32.6708 34.8379 33.242 34.3111 33.6663C33.7673 34.0906 33.2405 34.368 32.7647 34.5638C32.2888 34.7433 31.881 34.8412 31.5921 34.8902C31.2862 34.9555 31.1162 34.9555 31.1162 34.9555C31.1162 34.9555 31.1332 34.6944 31.1842 34.2864C31.1942 34.2239 31.2042 34.1586 31.2147 34.0905C31.2397 33.9273 31.2672 33.7478 31.3032 33.552C31.325 33.4329 31.3438 33.3078 31.3635 33.1767C31.3896 33.0024 31.4173 32.8174 31.4561 32.6218Z" fill="white"/>
<path d="M31.4561 32.6218C31.711 31.2837 32.0509 29.5865 32.7307 28.1015C33.0705 27.3509 33.4954 26.7307 33.9372 26.2249C34.3621 25.719 34.8209 25.311 35.2118 25.0009C36.0105 24.3808 36.6733 24.1524 36.6733 24.1524C36.6733 24.1524 36.7243 24.4298 36.7923 24.903C36.8132 25.0438 36.8277 25.2094 36.8437 25.3921C36.8536 25.5059 36.8642 25.6264 36.8772 25.7516C36.8942 26.078 36.9112 26.437 36.9112 26.8286C36.9282 28.3789 36.6563 30.3699 35.7896 31.9039C35.3308 32.6708 34.8379 33.242 34.3111 33.6663C33.7673 34.0906 33.2405 34.368 32.7647 34.5638C32.2888 34.7433 31.881 34.8412 31.5921 34.8902C31.2862 34.9555 31.1162 34.9555 31.1162 34.9555C31.1162 34.9555 31.1332 34.6944 31.1842 34.2864C31.1942 34.2239 31.2042 34.1586 31.2147 34.0905C31.2397 33.9273 31.2672 33.7478 31.3032 33.552C31.325 33.4329 31.3438 33.3078 31.3635 33.1767C31.3896 33.0024 31.4173 32.8174 31.4561 32.6218Z" fill="url(#paint3_linear_1582_5733)"/>
<path d="M32.1359 39.4433C30.8834 40.7436 29.9175 42.3513 29.1542 43.6217L29.1449 43.6373C29.06 43.8004 28.9749 43.9637 28.89 44.1105C28.805 44.2574 28.72 44.4043 28.6521 44.5348C28.4991 44.7959 28.3632 45.0407 28.2612 45.2529C28.0573 45.6608 27.9213 45.9056 27.9213 45.9056C27.9213 45.9056 28.1083 45.9546 28.4311 46.0035C28.754 46.0525 29.2129 46.1014 29.7737 46.0851C30.8613 46.0198 32.3908 45.6771 33.8353 44.4206C35.2798 43.1477 36.3504 41.2058 36.9112 39.5575C37.039 39.2166 37.1312 38.8871 37.2176 38.5785L37.2178 38.5778C37.2347 38.5175 37.2514 38.4575 37.2681 38.3989C37.2985 38.2702 37.329 38.1479 37.3579 38.0318C37.4096 37.824 37.4563 37.6362 37.489 37.4687C37.591 36.9302 37.625 36.6038 37.625 36.6038C37.625 36.6038 37.438 36.6202 37.1151 36.6691C36.7922 36.7344 36.3334 36.8486 35.8066 37.0281C35.2968 37.224 34.668 37.5014 34.0392 37.9094C33.7333 38.1052 33.4104 38.3336 33.1045 38.5947C32.7646 38.8232 32.4418 39.117 32.1359 39.4433Z" fill="white"/>
<path d="M32.1359 39.4433C30.8834 40.7436 29.9175 42.3513 29.1542 43.6217L29.1449 43.6373C29.06 43.8004 28.9749 43.9637 28.89 44.1105C28.805 44.2574 28.72 44.4043 28.6521 44.5348C28.4991 44.7959 28.3632 45.0407 28.2612 45.2529C28.0573 45.6608 27.9213 45.9056 27.9213 45.9056C27.9213 45.9056 28.1083 45.9546 28.4311 46.0035C28.754 46.0525 29.2129 46.1014 29.7737 46.0851C30.8613 46.0198 32.3908 45.6771 33.8353 44.4206C35.2798 43.1477 36.3504 41.2058 36.9112 39.5575C37.039 39.2166 37.1312 38.8871 37.2176 38.5785L37.2178 38.5778C37.2347 38.5175 37.2514 38.4575 37.2681 38.3989C37.2985 38.2702 37.329 38.1479 37.3579 38.0318C37.4096 37.824 37.4563 37.6362 37.489 37.4687C37.591 36.9302 37.625 36.6038 37.625 36.6038C37.625 36.6038 37.438 36.6202 37.1151 36.6691C36.7922 36.7344 36.3334 36.8486 35.8066 37.0281C35.2968 37.224 34.668 37.5014 34.0392 37.9094C33.7333 38.1052 33.4104 38.3336 33.1045 38.5947C32.7646 38.8232 32.4418 39.117 32.1359 39.4433Z" fill="url(#paint4_linear_1582_5733)"/>
<path d="M27.4625 50.1807C27.5687 50.1195 27.6749 50.0583 27.7854 50.0012C28.2273 49.7564 28.6521 49.5769 29.077 49.4463C29.4848 49.2668 29.8927 49.1363 30.2835 49.0384C30.6744 48.9404 31.0483 48.8588 31.4052 48.8099C31.762 48.7609 32.0849 48.7283 32.3908 48.712C32.9729 48.6641 33.4735 48.7099 33.8292 48.7425L33.8523 48.7446C34.2092 48.7935 34.4131 48.8425 34.4131 48.8425C34.4131 48.8425 34.2602 49.1526 33.9713 49.6748C33.8686 49.8719 33.7272 50.0877 33.5689 50.3291L33.5685 50.3298L33.5681 50.3304C33.517 50.4083 33.4643 50.4888 33.4105 50.5723C33.369 50.6336 33.3269 50.6966 33.2839 50.7609C33.0978 51.0396 32.8942 51.3445 32.6457 51.6493C31.4901 53.1507 29.7057 54.8316 27.7514 55.6638C26.7997 56.0718 25.8651 56.235 25.0663 56.2676C24.2676 56.3003 23.5539 56.186 22.9761 56.0228C22.3983 55.8597 21.9394 55.6638 21.6335 55.5006C21.3276 55.3374 21.1577 55.2232 21.1577 55.2232C21.1577 55.2232 21.3616 54.9947 21.7355 54.6684C21.8714 54.5497 22.0231 54.4094 22.1914 54.2538C22.4858 53.9816 22.8308 53.6625 23.231 53.3302C23.5369 53.0528 23.8598 52.7754 24.2166 52.4816C24.2463 52.4589 24.2759 52.4341 24.3062 52.4088C24.3629 52.3615 24.4222 52.312 24.4885 52.2695C24.531 52.2287 24.5778 52.192 24.6245 52.1553C24.6712 52.1185 24.718 52.0818 24.7605 52.041L25.3213 51.6004C25.4631 51.4997 25.6049 51.3969 25.7476 51.2935C25.998 51.1119 26.251 50.9286 26.5109 50.7518C26.7148 50.6213 26.9187 50.4907 27.1396 50.3602C27.2501 50.3031 27.3563 50.2419 27.4625 50.1807Z" fill="white"/>
<path d="M27.4625 50.1807C27.5687 50.1195 27.6749 50.0583 27.7854 50.0012C28.2273 49.7564 28.6521 49.5769 29.077 49.4463C29.4848 49.2668 29.8927 49.1363 30.2835 49.0384C30.6744 48.9404 31.0483 48.8588 31.4052 48.8099C31.762 48.7609 32.0849 48.7283 32.3908 48.712C32.9729 48.6641 33.4735 48.7099 33.8292 48.7425L33.8523 48.7446C34.2092 48.7935 34.4131 48.8425 34.4131 48.8425C34.4131 48.8425 34.2602 49.1526 33.9713 49.6748C33.8686 49.8719 33.7272 50.0877 33.5689 50.3291L33.5685 50.3298L33.5681 50.3304C33.517 50.4083 33.4643 50.4888 33.4105 50.5723C33.369 50.6336 33.3269 50.6966 33.2839 50.7609C33.0978 51.0396 32.8942 51.3445 32.6457 51.6493C31.4901 53.1507 29.7057 54.8316 27.7514 55.6638C26.7997 56.0718 25.8651 56.235 25.0663 56.2676C24.2676 56.3003 23.5539 56.186 22.9761 56.0228C22.3983 55.8597 21.9394 55.6638 21.6335 55.5006C21.3276 55.3374 21.1577 55.2232 21.1577 55.2232C21.1577 55.2232 21.3616 54.9947 21.7355 54.6684C21.8714 54.5497 22.0231 54.4094 22.1914 54.2538C22.4858 53.9816 22.8308 53.6625 23.231 53.3302C23.5369 53.0528 23.8598 52.7754 24.2166 52.4816C24.2463 52.4589 24.2759 52.4341 24.3062 52.4088C24.3629 52.3615 24.4222 52.312 24.4885 52.2695C24.531 52.2287 24.5778 52.192 24.6245 52.1553C24.6712 52.1185 24.718 52.0818 24.7605 52.041L25.3213 51.6004C25.4631 51.4997 25.6049 51.3969 25.7476 51.2935C25.998 51.1119 26.251 50.9286 26.5109 50.7518C26.7148 50.6213 26.9187 50.4907 27.1396 50.3602C27.2501 50.3031 27.3563 50.2419 27.4625 50.1807Z" fill="url(#paint5_linear_1582_5733)"/>
<path d="M20.206 58.7651C19.1354 58.9609 18.0987 59.271 17.0961 59.581C16.8094 59.6855 16.5226 59.7844 16.2426 59.881L16.2409 59.8816C16.0402 59.9508 15.8429 60.0189 15.6516 60.0869C15.5122 60.1347 15.3787 60.1881 15.2476 60.2405L15.247 60.2408L15.2463 60.241C15.1541 60.2779 15.0629 60.3144 14.9718 60.348C14.7509 60.4296 14.53 60.5112 14.3261 60.5765C14.0371 60.6921 13.7609 60.7995 13.502 60.9002C13.0302 61.0838 12.616 61.2449 12.2868 61.3924C12.1513 61.4575 12.0213 61.5066 11.9094 61.549C11.8249 61.5809 11.7504 61.6091 11.692 61.6372C11.556 61.6861 11.488 61.7188 11.488 61.7188C11.488 61.7188 11.607 61.8983 11.8449 62.1757C12.0828 62.4532 12.4567 62.8285 12.9835 63.2038C13.4933 63.5628 14.1561 63.9382 14.9888 64.1993C15.4137 64.3461 15.8725 64.4277 16.3653 64.493C16.8582 64.542 17.419 64.5746 17.9968 64.5257C18.5746 64.4767 19.1694 64.3788 19.7642 64.2319C20.342 64.0687 20.9368 63.8729 21.4976 63.6608C22.0584 63.416 22.6022 63.1549 23.129 62.8774C23.6388 62.6 24.1147 62.2899 24.5565 61.9962C24.6319 61.9548 24.7004 61.907 24.7665 61.8608C24.8047 61.8341 24.842 61.808 24.8794 61.7841C24.9303 61.7433 24.9813 61.7067 25.0322 61.67C25.0831 61.6333 25.1344 61.5964 25.1853 61.5556C25.2818 61.4861 25.3706 61.4167 25.4573 61.3489C25.5538 61.2735 25.6476 61.2001 25.7461 61.1313C26.103 60.8539 26.4089 60.6091 26.6468 60.3806C27.1226 59.94 27.3945 59.6626 27.3945 59.6626C27.3945 59.6626 27.2076 59.5484 26.8507 59.3852C26.5108 59.2383 26.001 59.0425 25.3552 58.8793C25.0324 58.7977 24.6925 58.7324 24.3016 58.6835C23.9107 58.6182 23.5029 58.5856 23.078 58.5693C22.6362 58.5529 22.1773 58.5529 21.7015 58.6019C21.2427 58.6019 20.7328 58.6509 20.206 58.7651Z" fill="white"/>
<path d="M20.206 58.7651C19.1354 58.9609 18.0987 59.271 17.0961 59.581C16.8094 59.6855 16.5226 59.7844 16.2426 59.881L16.2409 59.8816C16.0402 59.9508 15.8429 60.0189 15.6516 60.0869C15.5122 60.1347 15.3787 60.1881 15.2476 60.2405L15.247 60.2408L15.2463 60.241C15.1541 60.2779 15.0629 60.3144 14.9718 60.348C14.7509 60.4296 14.53 60.5112 14.3261 60.5765C14.0371 60.6921 13.7609 60.7995 13.502 60.9002C13.0302 61.0838 12.616 61.2449 12.2868 61.3924C12.1513 61.4575 12.0213 61.5066 11.9094 61.549C11.8249 61.5809 11.7504 61.6091 11.692 61.6372C11.556 61.6861 11.488 61.7188 11.488 61.7188C11.488 61.7188 11.607 61.8983 11.8449 62.1757C12.0828 62.4532 12.4567 62.8285 12.9835 63.2038C13.4933 63.5628 14.1561 63.9382 14.9888 64.1993C15.4137 64.3461 15.8725 64.4277 16.3653 64.493C16.8582 64.542 17.419 64.5746 17.9968 64.5257C18.5746 64.4767 19.1694 64.3788 19.7642 64.2319C20.342 64.0687 20.9368 63.8729 21.4976 63.6608C22.0584 63.416 22.6022 63.1549 23.129 62.8774C23.6388 62.6 24.1147 62.2899 24.5565 61.9962C24.6319 61.9548 24.7004 61.907 24.7665 61.8608C24.8047 61.8341 24.842 61.808 24.8794 61.7841C24.9303 61.7433 24.9813 61.7067 25.0322 61.67C25.0831 61.6333 25.1344 61.5964 25.1853 61.5556C25.2818 61.4861 25.3706 61.4167 25.4573 61.3489C25.5538 61.2735 25.6476 61.2001 25.7461 61.1313C26.103 60.8539 26.4089 60.6091 26.6468 60.3806C27.1226 59.94 27.3945 59.6626 27.3945 59.6626C27.3945 59.6626 27.2076 59.5484 26.8507 59.3852C26.5108 59.2383 26.001 59.0425 25.3552 58.8793C25.0324 58.7977 24.6925 58.7324 24.3016 58.6835C23.9107 58.6182 23.5029 58.5856 23.078 58.5693C22.6362 58.5529 22.1773 58.5529 21.7015 58.6019C21.2427 58.6019 20.7328 58.6509 20.206 58.7651Z" fill="url(#paint6_linear_1582_5733)"/>
<path d="M8.17416 64.3945C8.75197 64.4434 9.32977 64.5087 9.90757 64.623C11.0462 64.7862 12.0658 65.1125 12.9325 65.4389C13.7992 65.7816 14.547 66.1896 15.1418 66.5486C15.7365 66.9239 16.1954 67.2829 16.4843 67.5604C16.7732 67.8378 16.9261 68.0173 16.9261 68.0173C16.9261 68.0173 16.5353 68.2131 15.8555 68.5069C15.5156 68.6538 15.0908 68.8006 14.6149 68.9638C14.3775 69.0453 14.1231 69.1267 13.8686 69.2081L13.8672 69.2086C13.6123 69.2902 13.3234 69.3718 13.0345 69.4371C12.4567 69.5839 11.8449 69.7308 11.1821 69.8124C10.5363 69.9103 9.85658 69.9919 9.17682 69.9919C8.49705 70.0082 7.81729 70.0082 7.13752 69.9103C6.45776 69.8287 5.81198 69.7145 5.20019 69.5186C4.5884 69.3228 4.04459 69.1107 3.56876 68.8496C3.09292 68.5885 2.68506 68.2947 2.32818 68.001C2.14124 67.8378 1.9883 67.6909 1.83536 67.5441C1.7817 67.4797 1.7254 67.4178 1.66958 67.3565C1.58397 67.2624 1.4995 67.1696 1.42749 67.0708C1.17258 66.7608 0.968654 66.4507 0.798712 66.157C0.458829 65.5695 0.254897 65.0636 0.152932 64.6883C0.0527604 64.3195 0.018198 64.0925 0.0170142 64.0846C0.00576782 64.0847 0 64.0847 0 64.0847C0 64.0847 0.0339883 63.8563 0.135953 63.4809C0.237918 63.1056 0.407855 62.5834 0.662768 61.9796C0.693271 61.9137 0.723775 61.8462 0.754855 61.7774C0.862294 61.5394 0.976615 61.2863 1.12161 61.0331C1.20658 60.8699 1.29155 60.7067 1.39352 60.5436C1.49543 60.3805 1.59733 60.201 1.69924 60.0216C1.92017 59.6789 2.15825 59.3359 2.43016 58.9932C2.49946 58.9101 2.56876 58.8248 2.6389 58.7384C2.84397 58.486 3.05627 58.2247 3.29686 57.9815C4.55443 56.676 5.98193 55.7295 7.13753 54.9951C7.20553 54.9543 7.27777 54.9135 7.35001 54.8727C7.42222 54.8319 7.49443 54.7912 7.56239 54.7504C7.61636 54.718 7.66765 54.6856 7.71732 54.6542C7.79279 54.6065 7.86452 54.5612 7.93626 54.5219C8.0661 54.4417 8.19088 54.3713 8.30784 54.3053C8.40519 54.2503 8.49712 54.1984 8.58203 54.1465C8.93891 53.9344 9.15983 53.8365 9.15983 53.8365C9.15983 53.8365 9.24481 54.0486 9.36377 54.4076C9.46573 54.7667 9.60169 55.2888 9.66966 55.9253C9.73764 56.5617 9.72064 57.2798 9.5507 58.0631C9.38076 58.9117 9.00689 59.7113 8.3951 60.5272C8.08921 60.9189 7.71534 61.2779 7.32447 61.6369C6.91661 61.947 6.47476 62.257 6.03291 62.5181C5.57407 62.7629 5.09824 62.9914 4.6224 63.1872C4.14657 63.3667 3.67073 63.5136 3.22888 63.6441C2.3282 63.8563 1.51248 64.0031 0.934674 64.0358C0.647712 64.0601 0.415232 64.0723 0.253909 64.0785C0.415708 64.0763 0.654456 64.076 0.951659 64.0844C1.214 64.0992 1.52538 64.104 1.87627 64.1093C2.29821 64.1157 2.77727 64.123 3.29685 64.1497C3.77269 64.1497 4.28251 64.166 4.80933 64.1987C5.33614 64.1987 5.89695 64.215 6.45775 64.264C7.01856 64.2803 7.59636 64.3292 8.17416 64.3945Z" fill="white"/>
<path d="M8.17416 64.3945C8.75197 64.4434 9.32977 64.5087 9.90757 64.623C11.0462 64.7862 12.0658 65.1125 12.9325 65.4389C13.7992 65.7816 14.547 66.1896 15.1418 66.5486C15.7365 66.9239 16.1954 67.2829 16.4843 67.5604C16.7732 67.8378 16.9261 68.0173 16.9261 68.0173C16.9261 68.0173 16.5353 68.2131 15.8555 68.5069C15.5156 68.6538 15.0908 68.8006 14.6149 68.9638C14.3775 69.0453 14.1231 69.1267 13.8686 69.2081L13.8672 69.2086C13.6123 69.2902 13.3234 69.3718 13.0345 69.4371C12.4567 69.5839 11.8449 69.7308 11.1821 69.8124C10.5363 69.9103 9.85658 69.9919 9.17682 69.9919C8.49705 70.0082 7.81729 70.0082 7.13752 69.9103C6.45776 69.8287 5.81198 69.7145 5.20019 69.5186C4.5884 69.3228 4.04459 69.1107 3.56876 68.8496C3.09292 68.5885 2.68506 68.2947 2.32818 68.001C2.14124 67.8378 1.9883 67.6909 1.83536 67.5441C1.7817 67.4797 1.7254 67.4178 1.66958 67.3565C1.58397 67.2624 1.4995 67.1696 1.42749 67.0708C1.17258 66.7608 0.968654 66.4507 0.798712 66.157C0.458829 65.5695 0.254897 65.0636 0.152932 64.6883C0.0527604 64.3195 0.018198 64.0925 0.0170142 64.0846C0.00576782 64.0847 0 64.0847 0 64.0847C0 64.0847 0.0339883 63.8563 0.135953 63.4809C0.237918 63.1056 0.407855 62.5834 0.662768 61.9796C0.693271 61.9137 0.723775 61.8462 0.754855 61.7774C0.862294 61.5394 0.976615 61.2863 1.12161 61.0331C1.20658 60.8699 1.29155 60.7067 1.39352 60.5436C1.49543 60.3805 1.59733 60.201 1.69924 60.0216C1.92017 59.6789 2.15825 59.3359 2.43016 58.9932C2.49946 58.9101 2.56876 58.8248 2.6389 58.7384C2.84397 58.486 3.05627 58.2247 3.29686 57.9815C4.55443 56.676 5.98193 55.7295 7.13753 54.9951C7.20553 54.9543 7.27777 54.9135 7.35001 54.8727C7.42222 54.8319 7.49443 54.7912 7.56239 54.7504C7.61636 54.718 7.66765 54.6856 7.71732 54.6542C7.79279 54.6065 7.86452 54.5612 7.93626 54.5219C8.0661 54.4417 8.19088 54.3713 8.30784 54.3053C8.40519 54.2503 8.49712 54.1984 8.58203 54.1465C8.93891 53.9344 9.15983 53.8365 9.15983 53.8365C9.15983 53.8365 9.24481 54.0486 9.36377 54.4076C9.46573 54.7667 9.60169 55.2888 9.66966 55.9253C9.73764 56.5617 9.72064 57.2798 9.5507 58.0631C9.38076 58.9117 9.00689 59.7113 8.3951 60.5272C8.08921 60.9189 7.71534 61.2779 7.32447 61.6369C6.91661 61.947 6.47476 62.257 6.03291 62.5181C5.57407 62.7629 5.09824 62.9914 4.6224 63.1872C4.14657 63.3667 3.67073 63.5136 3.22888 63.6441C2.3282 63.8563 1.51248 64.0031 0.934674 64.0358C0.647712 64.0601 0.415232 64.0723 0.253909 64.0785C0.415708 64.0763 0.654456 64.076 0.951659 64.0844C1.214 64.0992 1.52538 64.104 1.87627 64.1093C2.29821 64.1157 2.77727 64.123 3.29685 64.1497C3.77269 64.1497 4.28251 64.166 4.80933 64.1987C5.33614 64.1987 5.89695 64.215 6.45775 64.264C7.01856 64.2803 7.59636 64.3292 8.17416 64.3945Z" fill="url(#paint7_linear_1582_5733)"/>
<path d="M21.8375 9.07336C23.078 9.51397 24.1657 10.4768 24.9134 11.3254C25.2873 11.7497 25.5762 12.1413 25.7631 12.435C25.9501 12.7288 26.069 12.9083 26.069 12.9083C26.069 12.9083 25.5252 13.1041 24.6925 13.1531C23.8598 13.202 22.7552 13.1368 21.5996 12.6472C20.4439 12.1413 19.4243 11.358 18.6766 10.7052L18.6256 10.6608C18.4586 10.5151 18.3057 10.3817 18.1667 10.2483C18.113 10.1967 18.0614 10.1492 18.0126 10.1042C17.9226 10.0213 17.842 9.94705 17.7759 9.87302C17.5549 9.66087 17.436 9.53029 17.436 9.53029C17.436 9.53029 17.9118 9.20391 18.6936 8.97545C19.0844 8.86122 19.5603 8.7633 20.0871 8.7633C20.6139 8.77961 21.2087 8.84489 21.8375 9.07336Z" fill="white"/>
<path d="M21.8375 9.07336C23.078 9.51397 24.1657 10.4768 24.9134 11.3254C25.2873 11.7497 25.5762 12.1413 25.7631 12.435C25.9501 12.7288 26.069 12.9083 26.069 12.9083C26.069 12.9083 25.5252 13.1041 24.6925 13.1531C23.8598 13.202 22.7552 13.1368 21.5996 12.6472C20.4439 12.1413 19.4243 11.358 18.6766 10.7052L18.6256 10.6608C18.4586 10.5151 18.3057 10.3817 18.1667 10.2483C18.113 10.1967 18.0614 10.1492 18.0126 10.1042C17.9226 10.0213 17.842 9.94705 17.7759 9.87302C17.5549 9.66087 17.436 9.53029 17.436 9.53029C17.436 9.53029 17.9118 9.20391 18.6936 8.97545C19.0844 8.86122 19.5603 8.7633 20.0871 8.7633C20.6139 8.77961 21.2087 8.84489 21.8375 9.07336Z" fill="url(#paint8_linear_1582_5733)"/>
<path d="M29.5358 21.5734C29.0089 20.4637 28.1422 19.1419 26.9527 18.3096C26.3579 17.9017 25.7631 17.6405 25.1853 17.4937C24.6245 17.3468 24.0976 17.3142 23.6388 17.3142C23.18 17.3142 22.8061 17.3794 22.5342 17.4284C22.2623 17.4773 22.1093 17.5263 22.1093 17.5263C22.1093 17.5263 22.2113 17.7058 22.3642 17.9996C22.5172 18.2933 22.7721 18.7013 23.061 19.1582C23.6558 20.0884 24.5055 21.2144 25.5761 22.063C26.1369 22.4709 26.6808 22.781 27.2246 23.0095C27.7514 23.2379 28.2612 23.3848 28.72 23.4664C29.6207 23.6296 30.2665 23.5804 30.2665 23.5804C30.2665 23.5804 30.2155 23.3522 30.0966 22.9931C30.0634 22.8764 30.0159 22.7459 29.9634 22.6016C29.9351 22.5241 29.9053 22.4422 29.8756 22.3567C29.7907 22.1119 29.6717 21.8508 29.5358 21.5734Z" fill="white"/>
<path d="M29.5358 21.5734C29.0089 20.4637 28.1422 19.1419 26.9527 18.3096C26.3579 17.9017 25.7631 17.6405 25.1853 17.4937C24.6245 17.3468 24.0976 17.3142 23.6388 17.3142C23.18 17.3142 22.8061 17.3794 22.5342 17.4284C22.2623 17.4773 22.1093 17.5263 22.1093 17.5263C22.1093 17.5263 22.2113 17.7058 22.3642 17.9996C22.5172 18.2933 22.7721 18.7013 23.061 19.1582C23.6558 20.0884 24.5055 21.2144 25.5761 22.063C26.1369 22.4709 26.6808 22.781 27.2246 23.0095C27.7514 23.2379 28.2612 23.3848 28.72 23.4664C29.6207 23.6296 30.2665 23.5804 30.2665 23.5804C30.2665 23.5804 30.2155 23.3522 30.0966 22.9931C30.0634 22.8764 30.0159 22.7459 29.9634 22.6016C29.9351 22.5241 29.9053 22.4422 29.8756 22.3567C29.7907 22.1119 29.6717 21.8508 29.5358 21.5734Z" fill="url(#paint9_linear_1582_5733)"/>
<path d="M29.3999 28.4437C30.3855 29.6349 30.9123 31.2832 31.0653 32.605C31.0746 32.6942 31.0851 32.7834 31.0956 32.8716C31.1233 33.1061 31.1503 33.3336 31.1503 33.5352V34.2695C31.1333 34.6938 31.1163 34.9386 31.1163 34.9386C31.1163 34.9386 30.9463 34.906 30.6574 34.7917C30.3685 34.6938 29.9777 34.5306 29.5528 34.2859C29.111 34.0411 28.6351 33.731 28.1593 33.3393C27.6835 32.9314 27.1906 32.4581 26.7828 31.8706C25.9331 30.712 25.4232 29.3575 25.0494 28.2642C25.009 28.1324 24.9686 28.008 24.9301 27.8891C24.8876 27.758 24.8471 27.6333 24.8115 27.5135C24.7435 27.2851 24.6925 27.0729 24.6585 26.9097C24.5735 26.567 24.5226 26.3548 24.5226 26.3548C24.5226 26.3548 25.2193 26.3059 26.188 26.518C26.6808 26.6323 27.2076 26.8118 27.7684 27.1056C28.3462 27.4319 28.89 27.8562 29.3999 28.4437Z" fill="white"/>
<path d="M29.3999 28.4437C30.3855 29.6349 30.9123 31.2832 31.0653 32.605C31.0746 32.6942 31.0851 32.7834 31.0956 32.8716C31.1233 33.1061 31.1503 33.3336 31.1503 33.5352V34.2695C31.1333 34.6938 31.1163 34.9386 31.1163 34.9386C31.1163 34.9386 30.9463 34.906 30.6574 34.7917C30.3685 34.6938 29.9777 34.5306 29.5528 34.2859C29.111 34.0411 28.6351 33.731 28.1593 33.3393C27.6835 32.9314 27.1906 32.4581 26.7828 31.8706C25.9331 30.712 25.4232 29.3575 25.0494 28.2642C25.009 28.1324 24.9686 28.008 24.9301 27.8891C24.8876 27.758 24.8471 27.6333 24.8115 27.5135C24.7435 27.2851 24.6925 27.0729 24.6585 26.9097C24.5735 26.567 24.5226 26.3548 24.5226 26.3548C24.5226 26.3548 25.2193 26.3059 26.188 26.518C26.6808 26.6323 27.2076 26.8118 27.7684 27.1056C28.3462 27.4319 28.89 27.8562 29.3999 28.4437Z" fill="url(#paint10_linear_1582_5733)"/>
<path d="M28.737 43.4893C29.0769 42.0696 29.1789 40.2092 28.5841 38.6589C28.4311 38.2673 28.2612 37.9246 28.0742 37.6145C27.8703 37.3045 27.6494 37.027 27.4115 36.7823C26.9356 36.2927 26.4598 35.9337 25.984 35.6726C25.5081 35.4115 25.1003 35.232 24.7944 35.134C24.4885 35.0361 24.3016 34.9872 24.3016 34.9872C24.3016 34.9872 24.2676 35.2157 24.2506 35.5747C24.2336 35.7705 24.2166 35.9826 24.1996 36.2274C24.1911 36.358 24.1911 36.4926 24.1911 36.6313C24.1911 36.77 24.1911 36.9128 24.1826 37.0597C24.1656 38.2509 24.1826 39.7849 24.6244 41.27C25.0663 42.755 25.848 43.9136 26.5788 44.7132C26.9356 45.1049 27.2585 45.415 27.5134 45.6108C27.7684 45.8066 27.9213 45.9045 27.9213 45.9045C27.9213 45.9045 27.9553 45.8392 28.0063 45.725C28.0573 45.6108 28.1252 45.4476 28.2102 45.2354C28.2732 45.0781 28.3362 44.8939 28.4061 44.6895L28.4064 44.6886L28.4066 44.688L28.407 44.6869C28.4311 44.6164 28.4561 44.5435 28.4821 44.4684C28.5081 44.3561 28.5441 44.2437 28.5823 44.1241C28.5941 44.0873 28.6061 44.0499 28.6181 44.0115C28.6328 43.9407 28.6508 43.8668 28.6691 43.7912C28.6931 43.6925 28.7178 43.5909 28.737 43.4893Z" fill="white"/>
<path d="M28.737 43.4893C29.0769 42.0696 29.1789 40.2092 28.5841 38.6589C28.4311 38.2673 28.2612 37.9246 28.0742 37.6145C27.8703 37.3045 27.6494 37.027 27.4115 36.7823C26.9356 36.2927 26.4598 35.9337 25.984 35.6726C25.5081 35.4115 25.1003 35.232 24.7944 35.134C24.4885 35.0361 24.3016 34.9872 24.3016 34.9872C24.3016 34.9872 24.2676 35.2157 24.2506 35.5747C24.2336 35.7705 24.2166 35.9826 24.1996 36.2274C24.1911 36.358 24.1911 36.4926 24.1911 36.6313C24.1911 36.77 24.1911 36.9128 24.1826 37.0597C24.1656 38.2509 24.1826 39.7849 24.6244 41.27C25.0663 42.755 25.848 43.9136 26.5788 44.7132C26.9356 45.1049 27.2585 45.415 27.5134 45.6108C27.7684 45.8066 27.9213 45.9045 27.9213 45.9045C27.9213 45.9045 27.9553 45.8392 28.0063 45.725C28.0573 45.6108 28.1252 45.4476 28.2102 45.2354C28.2732 45.0781 28.3362 44.8939 28.4061 44.6895L28.4064 44.6886L28.4066 44.688L28.407 44.6869C28.4311 44.6164 28.4561 44.5435 28.4821 44.4684C28.5081 44.3561 28.5441 44.2437 28.5823 44.1241C28.5941 44.0873 28.6061 44.0499 28.6181 44.0115C28.6328 43.9407 28.6508 43.8668 28.6691 43.7912C28.6931 43.6925 28.7178 43.5909 28.737 43.4893Z" fill="url(#paint11_linear_1582_5733)"/>
<path d="M24.4226 48.2145C24.4258 48.3848 24.429 48.5528 24.4035 48.7117C24.3884 48.9146 24.3599 49.1047 24.3299 49.3048L24.3185 49.3808C24.2506 49.8214 24.1316 50.2783 23.9787 50.7026C23.9107 50.9146 23.8258 51.1266 23.7409 51.3387C23.7154 51.3876 23.694 51.441 23.6728 51.4941C23.6515 51.5471 23.6303 51.6001 23.6048 51.6491C23.5538 51.747 23.5028 51.845 23.4688 51.9429C23.2819 52.3345 23.078 52.6935 22.874 53.0362C22.4322 53.689 22.0243 54.2601 21.6845 54.6191C21.3616 54.9945 21.1406 55.2066 21.1406 55.2066C21.1406 55.2066 21.0047 55.0434 20.8347 54.766C20.6478 54.4723 20.4269 54.048 20.206 53.5258C19.985 53.0036 19.7811 52.3835 19.6282 51.6818C19.4752 50.98 19.4072 50.2293 19.4412 49.3971C19.5092 47.7489 20.019 46.1823 20.4439 44.9747C20.5034 44.8278 20.5543 44.6809 20.6032 44.5402C20.6521 44.3994 20.6988 44.2648 20.7498 44.1424C20.7851 44.0576 20.8204 43.9767 20.8544 43.899C20.9183 43.7525 20.9773 43.6176 21.0217 43.4896C21.1746 43.1306 21.2766 42.9185 21.2766 42.9185C21.2766 42.9185 21.4465 43.0164 21.7354 43.2285C22.0073 43.4244 22.3812 43.7344 22.7721 44.1587L22.8025 44.1933C22.981 44.3956 23.173 44.6134 23.3499 44.8604C23.5368 45.1215 23.7068 45.4153 23.8597 45.7417C24.0126 46.068 24.1486 46.427 24.2506 46.8024C24.3355 47.194 24.4035 47.602 24.4205 48.0426C24.4205 48.1 24.4216 48.1574 24.4226 48.2145Z" fill="white"/>
<path d="M24.4226 48.2145C24.4258 48.3848 24.429 48.5528 24.4035 48.7117C24.3884 48.9146 24.3599 49.1047 24.3299 49.3048L24.3185 49.3808C24.2506 49.8214 24.1316 50.2783 23.9787 50.7026C23.9107 50.9146 23.8258 51.1266 23.7409 51.3387C23.7154 51.3876 23.694 51.441 23.6728 51.4941C23.6515 51.5471 23.6303 51.6001 23.6048 51.6491C23.5538 51.747 23.5028 51.845 23.4688 51.9429C23.2819 52.3345 23.078 52.6935 22.874 53.0362C22.4322 53.689 22.0243 54.2601 21.6845 54.6191C21.3616 54.9945 21.1406 55.2066 21.1406 55.2066C21.1406 55.2066 21.0047 55.0434 20.8347 54.766C20.6478 54.4723 20.4269 54.048 20.206 53.5258C19.985 53.0036 19.7811 52.3835 19.6282 51.6818C19.4752 50.98 19.4072 50.2293 19.4412 49.3971C19.5092 47.7489 20.019 46.1823 20.4439 44.9747C20.5034 44.8278 20.5543 44.6809 20.6032 44.5402C20.6521 44.3994 20.6988 44.2648 20.7498 44.1424C20.7851 44.0576 20.8204 43.9767 20.8544 43.899C20.9183 43.7525 20.9773 43.6176 21.0217 43.4896C21.1746 43.1306 21.2766 42.9185 21.2766 42.9185C21.2766 42.9185 21.4465 43.0164 21.7354 43.2285C22.0073 43.4244 22.3812 43.7344 22.7721 44.1587L22.8025 44.1933C22.981 44.3956 23.173 44.6134 23.3499 44.8604C23.5368 45.1215 23.7068 45.4153 23.8597 45.7417C24.0126 46.068 24.1486 46.427 24.2506 46.8024C24.3355 47.194 24.4035 47.602 24.4205 48.0426C24.4205 48.1 24.4216 48.1574 24.4226 48.2145Z" fill="url(#paint12_linear_1582_5733)"/>
<path d="M16.0764 58.1925C16.6882 57.4418 17.181 56.5606 17.453 55.663C17.5889 55.2061 17.6739 54.7655 17.7079 54.3249C17.7419 53.9006 17.7249 53.4926 17.6739 53.1173C17.6229 52.742 17.5549 52.3993 17.453 52.0729C17.3684 51.8021 17.2604 51.5539 17.1581 51.3187C17.1371 51.2704 17.1164 51.2226 17.0961 51.1754C16.8412 50.6205 16.5523 50.1962 16.3483 49.9025C16.1444 49.6087 15.9915 49.4455 15.9915 49.4455C15.9915 49.4455 15.8215 49.625 15.5496 49.9351C15.4606 50.0572 15.3431 50.1884 15.2113 50.3355C15.1669 50.3851 15.1209 50.4365 15.0738 50.4899C14.9888 50.6042 14.9038 50.7184 14.8019 50.8326C14.7679 50.8979 14.7169 50.9631 14.666 51.0284L14.513 51.2243C13.6803 52.285 12.6946 53.6558 12.0318 55.2551C11.8619 55.663 11.7259 56.0547 11.624 56.4463C11.5388 56.7871 11.4773 57.1165 11.4198 57.425C11.4085 57.4858 11.3972 57.5459 11.386 57.605C11.2671 58.3393 11.2331 59.0574 11.2501 59.6611C11.2501 60.2649 11.3181 60.7708 11.386 61.1298C11.437 61.4889 11.505 61.6847 11.505 61.6847L11.7089 61.5868C11.8279 61.5378 12.0318 61.4399 12.2697 61.3094C12.7456 61.0483 13.3914 60.6729 14.0711 60.1344C14.1228 60.0947 14.176 60.055 14.2299 60.0149C14.3532 59.923 14.4797 59.8286 14.5979 59.7264C14.7677 59.5797 14.9375 59.4166 15.1073 59.2536C15.4472 58.9272 15.7875 58.5841 16.0764 58.1925Z" fill="white"/>
<path d="M16.0764 58.1925C16.6882 57.4418 17.181 56.5606 17.453 55.663C17.5889 55.2061 17.6739 54.7655 17.7079 54.3249C17.7419 53.9006 17.7249 53.4926 17.6739 53.1173C17.6229 52.742 17.5549 52.3993 17.453 52.0729C17.3684 51.8021 17.2604 51.5539 17.1581 51.3187C17.1371 51.2704 17.1164 51.2226 17.0961 51.1754C16.8412 50.6205 16.5523 50.1962 16.3483 49.9025C16.1444 49.6087 15.9915 49.4455 15.9915 49.4455C15.9915 49.4455 15.8215 49.625 15.5496 49.9351C15.4606 50.0572 15.3431 50.1884 15.2113 50.3355C15.1669 50.3851 15.1209 50.4365 15.0738 50.4899C14.9888 50.6042 14.9038 50.7184 14.8019 50.8326C14.7679 50.8979 14.7169 50.9631 14.666 51.0284L14.513 51.2243C13.6803 52.285 12.6946 53.6558 12.0318 55.2551C11.8619 55.663 11.7259 56.0547 11.624 56.4463C11.5388 56.7871 11.4773 57.1165 11.4198 57.425C11.4085 57.4858 11.3972 57.5459 11.386 57.605C11.2671 58.3393 11.2331 59.0574 11.2501 59.6611C11.2501 60.2649 11.3181 60.7708 11.386 61.1298C11.437 61.4889 11.505 61.6847 11.505 61.6847L11.7089 61.5868C11.8279 61.5378 12.0318 61.4399 12.2697 61.3094C12.7456 61.0483 13.3914 60.6729 14.0711 60.1344C14.1228 60.0947 14.176 60.055 14.2299 60.0149C14.3532 59.923 14.4797 59.8286 14.5979 59.7264C14.7677 59.5797 14.9375 59.4166 15.1073 59.2536C15.4472 58.9272 15.7875 58.5841 16.0764 58.1925Z" fill="url(#paint13_linear_1582_5733)"/>
<defs>
<linearGradient id="paint0_linear_1582_5733" x1="0.43577" y1="2.40064" x2="56.7534" y2="31.9817" gradientUnits="userSpaceOnUse">
<stop stop-color="#FFFB00"/>
<stop offset="1" stop-color="#FF7B00"/>
</linearGradient>
<linearGradient id="paint1_linear_1582_5733" x1="0.43577" y1="2.40064" x2="56.7534" y2="31.9817" gradientUnits="userSpaceOnUse">
<stop stop-color="#FFFB00"/>
<stop offset="1" stop-color="#FF7B00"/>
</linearGradient>
<linearGradient id="paint2_linear_1582_5733" x1="0.43577" y1="2.40064" x2="56.7534" y2="31.9817" gradientUnits="userSpaceOnUse">
<stop stop-color="#FFFB00"/>
<stop offset="1" stop-color="#FF7B00"/>
</linearGradient>
<linearGradient id="paint3_linear_1582_5733" x1="0.43577" y1="2.40064" x2="56.7534" y2="31.9817" gradientUnits="userSpaceOnUse">
<stop stop-color="#FFFB00"/>
<stop offset="1" stop-color="#FF7B00"/>
</linearGradient>
<linearGradient id="paint4_linear_1582_5733" x1="0.43577" y1="2.40064" x2="56.7534" y2="31.9817" gradientUnits="userSpaceOnUse">
<stop stop-color="#FFFB00"/>
<stop offset="1" stop-color="#FF7B00"/>
</linearGradient>
<linearGradient id="paint5_linear_1582_5733" x1="0.43577" y1="2.40064" x2="56.7534" y2="31.9817" gradientUnits="userSpaceOnUse">
<stop stop-color="#FFFB00"/>
<stop offset="1" stop-color="#FF7B00"/>
</linearGradient>
<linearGradient id="paint6_linear_1582_5733" x1="0.43577" y1="2.40064" x2="56.7534" y2="31.9817" gradientUnits="userSpaceOnUse">
<stop stop-color="#FFFB00"/>
<stop offset="1" stop-color="#FF7B00"/>
</linearGradient>
<linearGradient id="paint7_linear_1582_5733" x1="0.43577" y1="2.40064" x2="56.7534" y2="31.9817" gradientUnits="userSpaceOnUse">
<stop stop-color="#FFFB00"/>
<stop offset="1" stop-color="#FF7B00"/>
</linearGradient>
<linearGradient id="paint8_linear_1582_5733" x1="0.43577" y1="2.40064" x2="56.7534" y2="31.9817" gradientUnits="userSpaceOnUse">
<stop stop-color="#FFFB00"/>
<stop offset="1" stop-color="#FF7B00"/>
</linearGradient>
<linearGradient id="paint9_linear_1582_5733" x1="0.43577" y1="2.40064" x2="56.7534" y2="31.9817" gradientUnits="userSpaceOnUse">
<stop stop-color="#FFFB00"/>
<stop offset="1" stop-color="#FF7B00"/>
</linearGradient>
<linearGradient id="paint10_linear_1582_5733" x1="0.43577" y1="2.40064" x2="56.7534" y2="31.9817" gradientUnits="userSpaceOnUse">
<stop stop-color="#FFFB00"/>
<stop offset="1" stop-color="#FF7B00"/>
</linearGradient>
<linearGradient id="paint11_linear_1582_5733" x1="0.43577" y1="2.40064" x2="56.7534" y2="31.9817" gradientUnits="userSpaceOnUse">
<stop stop-color="#FFFB00"/>
<stop offset="1" stop-color="#FF7B00"/>
</linearGradient>
<linearGradient id="paint12_linear_1582_5733" x1="0.43577" y1="2.40064" x2="56.7534" y2="31.9817" gradientUnits="userSpaceOnUse">
<stop stop-color="#FFFB00"/>
<stop offset="1" stop-color="#FF7B00"/>
</linearGradient>
<linearGradient id="paint13_linear_1582_5733" x1="0.43577" y1="2.40064" x2="56.7534" y2="31.9817" gradientUnits="userSpaceOnUse">
<stop stop-color="#FFFB00"/>
<stop offset="1" stop-color="#FF7B00"/>
</linearGradient>
</defs>
</svg>
